{"glyphs":{"0":{"ha":681,"x_min":47,"x_max":650,"o":"m 346 961 q 454 935 400 961 q 552 850 508 908 q 623 699 596 792 q 650 475 650 607 q 623 249 650 342 q 552 99 596 157 q 454 14 508 40 q 346 -12 400 -12 q 242 14 296 -12 q 146 99 189 40 q 75 249 103 157 q 47 475 47 342 q 75 699 47 607 q 146 850 103 792 q 242 935 189 908 q 346 961 296 961 m 346 4 q 479 119 443 4 q 515 475 515 235 q 479 829 515 714 q 346 944 443 944 q 218 829 254 944 q 182 475 182 714 q 218 119 182 233 q 346 4 254 4 z "},"1":{"ha":390,"x_min":46,"x_max":357,"o":"m 335 39 q 352 33 347 39 q 357 19 357 26 q 351 5 357 11 q 335 -1 344 -1 l 68 -1 q 51 5 57 -1 q 46 19 46 11 q 51 33 46 26 q 68 39 57 39 q 110 49 96 39 q 128 77 124 60 q 133 116 133 94 q 133 158 133 138 l 133 689 q 132 729 133 714 q 124 753 131 744 q 105 765 118 763 q 67 768 92 768 q 51 774 57 768 q 46 789 46 781 q 67 808 46 808 q 135 819 106 808 q 186 849 165 831 q 217 892 207 868 q 228 943 228 917 q 247 963 228 963 q 268 943 268 963 l 269 158 q 271 111 269 133 q 278 73 272 89 q 298 48 285 57 q 335 39 311 39 z "},"2":{"ha":625,"x_min":32,"x_max":578,"o":"m 578 708 q 535 547 578 619 q 431 413 493 474 q 300 301 369 353 q 178 203 231 250 l 197 203 q 273 185 243 203 q 328 147 303 168 q 377 109 353 126 q 435 92 401 92 q 497 108 474 92 q 519 182 519 125 q 542 203 519 203 q 556 197 550 203 q 563 182 563 192 q 528 38 563 90 q 431 -14 494 -14 q 364 1 390 -14 q 313 33 338 15 q 263 65 289 50 q 197 79 236 79 q 122 61 156 79 q 89 10 89 43 q 83 -7 89 0 q 67 -14 76 -14 q 50 -7 57 -14 q 43 10 43 0 l 43 82 q 51 127 43 107 q 73 165 60 147 q 102 196 86 182 q 132 222 118 210 q 288 379 219 297 q 344 453 317 414 q 394 535 372 493 q 430 622 417 578 q 443 708 443 665 q 440 794 443 753 q 423 869 438 836 q 377 921 408 901 q 288 940 346 940 q 187 917 228 940 q 127 861 146 893 q 114 797 108 829 q 156 749 119 765 q 211 702 196 729 q 224 649 226 675 q 203 603 221 624 q 158 579 185 583 q 66 604 100 568 q 32 721 32 640 q 50 815 32 771 q 101 891 68 858 q 182 942 135 924 q 288 961 229 961 q 420 940 365 961 q 510 883 475 918 q 562 802 546 847 q 578 708 578 757 z "},"3":{"ha":618,"x_min":32,"x_max":575,"o":"m 575 729 q 558 631 575 669 q 516 569 542 593 q 460 530 490 544 q 404 504 431 515 q 460 477 431 496 q 515 429 490 458 q 557 359 540 400 q 574 265 574 318 q 501 55 575 122 q 303 -12 428 -12 q 211 -1 258 -12 q 124 33 164 10 q 59 94 85 57 q 33 182 33 131 q 40 233 33 207 q 60 281 47 260 q 94 317 74 303 q 142 331 114 331 q 197 313 175 331 q 228 269 219 294 q 228 217 236 244 q 189 172 219 190 q 138 115 143 143 q 153 65 132 88 q 216 29 175 43 q 304 15 257 15 q 378 37 351 15 q 419 96 406 58 q 435 183 432 133 q 439 288 439 232 q 428 390 439 351 q 394 450 417 429 q 335 477 371 471 q 251 483 300 483 q 237 490 243 483 q 231 504 231 496 q 237 519 231 513 q 251 525 243 525 q 356 538 318 525 q 412 575 393 550 q 435 638 431 600 q 440 724 440 675 q 435 810 440 771 q 414 878 431 850 q 366 922 397 907 q 283 938 335 938 q 183 919 225 938 q 125 875 142 901 q 120 818 108 849 q 181 761 132 788 q 222 719 210 744 q 231 670 235 694 q 211 626 228 646 q 167 603 194 607 q 116 603 140 599 q 73 624 92 608 q 43 665 54 639 q 32 731 32 692 q 49 818 32 776 q 98 892 65 860 q 177 942 131 924 q 282 961 224 961 q 408 944 353 961 q 500 895 463 926 q 556 822 538 864 q 575 729 575 779 z "},"4":{"ha":679,"x_min":43,"x_max":640,"o":"m 621 431 q 635 424 629 431 q 640 410 640 418 l 640 240 q 634 226 640 232 q 621 219 628 219 q 607 226 613 219 q 601 240 601 232 q 583 294 601 281 q 544 311 564 308 l 524 311 l 525 160 q 525 113 525 135 q 530 74 525 90 q 547 49 535 58 q 583 40 560 40 q 600 34 594 40 q 606 20 606 28 q 599 6 606 13 q 583 0 593 0 l 325 0 q 308 6 314 0 q 303 20 303 13 q 308 34 303 28 q 325 40 314 40 q 367 51 354 40 q 385 78 381 61 q 390 117 390 96 q 389 160 389 139 l 389 311 l 72 311 q 50 324 57 311 q 50 349 43 336 l 396 918 q 433 953 411 943 q 474 960 454 964 q 509 936 494 956 q 524 882 524 917 l 524 339 l 536 339 q 559 342 547 339 q 580 352 571 344 q 595 374 589 360 q 601 410 601 388 q 607 424 601 418 q 621 431 613 431 m 81 340 l 389 340 l 389 851 l 81 340 z "},"5":{"ha":642,"x_min":32,"x_max":597,"o":"m 289 557 q 412 544 356 557 q 509 501 468 532 q 574 416 550 469 q 597 281 597 363 q 576 165 597 218 q 516 72 556 111 q 419 10 476 32 q 289 -12 363 -12 q 190 2 236 -12 q 108 45 143 17 q 52 114 72 74 q 32 206 32 154 q 46 276 32 243 q 82 330 60 308 q 133 358 104 351 q 193 347 163 364 q 229 310 218 333 q 235 261 240 286 q 208 213 229 236 q 146 178 186 190 q 106 140 115 168 q 112 83 96 113 q 171 31 128 54 q 289 8 214 8 q 375 37 346 8 q 417 107 404 65 q 430 196 429 149 q 431 281 431 243 q 427 391 431 344 q 409 468 424 438 q 366 513 394 499 q 289 528 338 528 q 184 508 225 528 q 111 457 143 489 q 74 438 88 433 q 60 464 60 442 l 60 849 q 85 950 60 929 q 168 951 110 971 q 226 939 185 946 q 315 929 267 932 q 415 931 364 926 q 503 951 465 935 q 551 960 531 964 q 583 940 572 956 q 590 900 593 925 q 569 846 588 875 q 481 780 538 796 q 363 766 424 764 q 251 779 303 768 q 181 796 200 790 q 124 794 144 806 q 103 747 103 783 q 102 687 103 729 q 101 600 101 644 l 101 489 q 151 522 124 507 q 210 546 175 535 q 289 557 244 557 z "},"6":{"ha":685,"x_min":47,"x_max":632,"o":"m 360 547 q 472 533 422 547 q 558 486 522 518 q 613 403 593 454 q 632 279 632 351 q 563 63 632 138 q 344 -12 494 -12 q 206 21 263 -12 q 115 117 150 54 q 63 269 79 179 q 47 471 47 358 q 71 688 47 594 q 136 843 94 781 q 233 937 178 906 q 351 968 289 968 q 442 957 394 968 q 527 919 489 946 q 590 845 565 892 q 615 726 615 799 q 576 607 615 639 q 482 590 536 575 q 449 610 465 594 q 427 647 433 625 q 427 695 421 669 q 458 746 433 721 q 503 817 493 781 q 500 882 514 853 q 449 930 486 911 q 351 949 413 949 q 276 925 306 949 q 230 862 247 901 q 204 772 213 822 q 194 667 196 721 q 192 563 192 614 q 193 469 193 511 q 201 483 193 471 q 229 510 210 496 q 281 535 249 524 q 360 547 313 547 m 344 13 q 428 28 397 13 q 474 76 458 43 q 493 159 489 108 q 497 279 497 210 q 495 368 497 325 q 481 443 493 411 q 440 494 468 475 q 358 514 411 514 q 273 494 306 514 q 223 443 240 475 q 199 369 206 411 q 193 279 193 326 q 228 76 193 139 q 344 13 264 13 z "},"7":{"ha":596,"x_min":32,"x_max":553,"o":"m 553 865 q 548 800 553 826 q 533 751 543 774 q 504 709 522 729 q 461 663 486 689 q 354 528 390 592 q 304 409 318 465 q 294 304 290 353 q 308 215 299 256 q 328 140 318 174 q 339 79 339 106 q 312 12 339 39 q 244 -15 285 -15 q 178 12 206 -15 q 150 79 150 39 q 184 319 150 217 q 267 499 218 421 q 368 638 315 578 q 457 750 421 697 q 397 735 433 735 q 322 747 351 735 q 267 774 292 760 q 217 801 242 789 q 160 814 193 814 q 118 806 135 814 q 92 783 101 797 q 78 752 82 769 q 75 718 75 735 q 53 697 75 697 q 38 703 44 697 q 32 718 32 710 l 32 939 q 38 955 32 949 q 53 961 44 961 q 75 939 75 961 l 75 881 q 117 922 93 907 q 171 936 142 936 q 235 925 210 936 q 284 901 261 914 q 333 876 307 888 q 397 865 358 865 q 438 867 418 865 q 472 877 457 869 q 497 899 488 885 q 506 938 506 913 q 512 954 506 947 q 528 961 518 961 q 544 954 538 961 q 551 938 551 947 l 551 917 q 552 894 551 907 q 553 865 553 881 z "},"8":{"ha":607,"x_min":3,"x_max":561,"o":"m 386 492 q 449 446 418 471 q 506 390 481 421 q 546 320 531 358 q 561 238 561 282 q 547 142 561 188 q 499 63 532 97 q 415 8 467 28 q 289 -12 363 -12 q 185 0 236 -12 q 94 40 135 13 q 28 110 53 67 q 3 215 3 153 q 15 285 3 249 q 51 354 28 321 q 104 415 74 388 q 171 460 135 443 q 115 501 142 479 q 69 552 89 524 q 38 615 49 581 q 26 694 26 650 q 44 792 26 744 q 94 878 61 840 q 176 938 128 915 q 288 961 225 961 q 485 898 425 961 q 544 717 544 835 q 528 640 544 675 q 489 576 513 604 q 438 526 465 547 q 386 492 410 504 m 153 753 q 167 671 153 704 q 206 611 181 638 q 267 563 232 585 q 343 517 301 542 q 388 559 372 533 q 413 616 404 585 q 423 682 421 647 q 425 753 425 717 q 397 894 425 851 q 288 936 368 936 q 183 886 214 936 q 153 753 153 836 m 289 13 q 401 52 365 13 q 436 175 436 92 q 417 266 436 228 q 366 333 397 304 q 294 386 335 363 q 211 435 254 410 q 181 408 197 428 q 151 362 165 389 q 128 302 138 335 q 119 235 119 269 q 126 153 119 193 q 152 83 133 114 q 203 32 171 51 q 289 13 236 13 z "},"9":{"ha":664,"x_min":32,"x_max":617,"o":"m 319 961 q 456 928 400 961 q 548 833 513 894 q 600 683 583 771 q 617 489 617 596 q 603 271 617 365 q 555 113 589 176 q 463 17 521 49 q 319 -15 406 -15 q 209 3 257 -15 q 128 55 161 22 q 78 131 94 88 q 61 224 61 174 q 100 349 61 311 q 194 376 139 388 q 244 348 225 369 q 269 301 264 326 q 261 252 274 275 q 218 221 249 229 q 151 171 165 207 q 155 98 138 135 q 215 35 172 61 q 319 15 258 10 q 428 67 396 22 q 471 177 461 111 q 476 322 481 243 q 471 475 471 400 q 460 464 469 474 q 433 442 451 454 q 387 422 415 431 q 319 413 358 413 q 215 424 267 413 q 123 468 164 436 q 57 555 82 500 q 32 696 32 610 q 55 807 32 758 q 117 890 78 856 q 209 943 157 925 q 319 961 261 961 m 319 446 q 408 467 378 446 q 453 524 439 489 q 469 604 467 560 q 471 696 471 649 q 465 780 471 738 q 441 856 458 822 q 394 910 424 889 q 319 931 365 931 q 241 911 271 931 q 194 860 211 892 q 170 785 176 828 q 164 696 164 742 q 169 608 164 653 q 190 528 174 564 q 236 469 206 492 q 319 446 267 446 z "}," ":{"ha":357,"x_min":0,"x_max":0,"o":""},"e":{"ha":535,"x_min":32,"x_max":511,"o":"m 511 494 q 492 404 511 440 q 442 347 472 368 q 373 315 411 325 q 297 300 335 304 q 226 297 260 296 q 172 297 193 297 q 177 210 172 257 q 197 124 182 164 q 236 57 211 83 q 301 31 261 31 q 391 47 356 31 q 447 87 426 63 q 477 140 468 111 q 486 194 486 168 q 497 204 486 204 q 507 194 507 204 q 490 108 507 146 q 446 43 474 69 q 381 3 418 17 q 300 -11 343 -11 q 178 15 228 -12 q 97 90 128 43 q 50 200 65 138 q 33 333 35 263 q 51 460 32 401 q 107 563 71 519 q 192 630 143 606 q 299 654 242 654 q 457 609 403 654 q 511 494 511 564 m 172 321 q 222 325 189 321 q 290 347 256 329 q 351 399 325 365 q 376 494 376 433 q 358 597 376 556 q 299 639 339 639 q 242 618 265 639 q 206 565 219 597 q 185 495 192 533 q 175 422 178 457 q 172 358 172 386 q 172 321 172 331 z "},"f":{"ha":343,"x_min":-39,"x_max":425,"o":"m 315 644 q 330 639 324 644 q 336 625 336 633 q 330 610 336 615 q 315 604 324 604 l 203 604 l 203 158 q 203 121 203 142 q 206 83 203 100 q 213 53 208 65 q 229 40 218 40 q 246 34 240 40 q 251 20 251 28 q 245 6 251 13 q 229 0 239 0 l 40 0 q 24 6 29 0 q 18 20 18 13 q 24 34 18 28 q 40 40 29 40 q 57 53 51 40 q 65 83 63 65 q 68 121 68 100 q 68 158 68 142 l 68 604 l -18 604 q -33 610 -26 604 q -39 625 -39 615 q -33 639 -39 633 q -18 644 -26 644 q 53 656 39 644 q 68 693 68 668 q 81 833 68 776 q 119 926 94 890 q 180 976 144 961 q 261 992 215 992 q 382 945 339 992 q 425 815 425 899 q 405 760 425 783 q 353 736 385 736 q 317 745 332 736 q 293 767 301 754 q 283 797 285 781 q 290 831 282 814 q 314 886 304 860 q 322 932 324 913 q 307 963 321 951 q 261 975 293 975 q 228 963 240 975 q 211 935 217 951 q 204 902 206 919 q 203 875 203 885 l 203 693 q 207 665 203 675 q 224 651 211 656 q 258 645 236 646 q 315 644 279 644 z "},"g":{"ha":607,"x_min":33,"x_max":600,"o":"m 597 700 q 594 671 600 683 q 575 652 588 658 q 547 646 563 646 q 515 656 532 646 q 486 660 496 668 q 474 637 476 651 q 472 606 471 622 q 472 585 472 589 q 549 386 549 508 q 526 268 549 324 q 450 168 503 213 q 513 108 486 150 q 548 12 540 65 q 540 -99 556 -42 q 475 -207 525 -157 q 396 -260 442 -240 q 301 -287 350 -281 q 204 -285 253 -293 q 118 -255 156 -278 q 57 -194 81 -232 q 33 -100 33 -156 q 40 -56 33 -79 q 60 -8 46 -32 q 99 38 75 17 q 158 75 122 60 q 213 88 186 88 q 261 81 240 89 q 295 56 282 72 q 308 18 308 39 q 301 -16 308 1 q 277 -44 293 -33 q 238 -56 261 -56 q 185 -40 215 -57 q 147 -27 169 -32 q 105 -26 125 -22 q 71 -47 85 -31 q 57 -100 57 -64 q 88 -183 57 -153 q 167 -219 118 -214 q 275 -199 215 -224 q 392 -118 335 -175 q 442 -46 424 -86 q 466 34 461 -6 q 462 106 471 74 q 429 154 453 139 q 365 124 400 135 q 297 114 331 114 q 212 131 257 114 q 129 181 167 147 q 68 267 92 215 q 47 386 44 318 q 69 506 44 454 q 131 591 93 557 q 213 642 168 625 q 297 658 257 658 q 372 645 333 658 q 446 606 411 632 q 468 690 453 658 q 515 736 483 721 q 538 742 525 740 q 563 739 551 743 q 585 726 575 735 q 597 700 594 717 m 297 133 q 356 160 335 133 q 388 226 378 188 q 401 309 399 265 q 404 386 404 353 q 402 456 404 413 q 390 539 400 499 q 358 608 381 579 q 297 638 336 638 q 190 386 190 638 q 297 133 190 133 z "},"h":{"ha":608,"x_min":32,"x_max":574,"o":"m 551 40 q 569 34 564 40 q 574 20 574 28 q 567 6 574 13 q 551 0 561 0 l 375 0 q 358 6 364 0 q 353 20 353 13 q 358 34 353 28 q 375 40 363 40 q 397 71 392 40 q 401 135 401 101 l 401 514 q 400 546 401 531 q 393 573 399 561 q 374 592 388 585 q 339 600 361 600 q 294 592 314 600 q 258 572 274 583 q 232 546 243 560 q 215 521 221 532 l 215 121 q 222 66 217 92 q 243 40 226 40 q 260 34 254 40 q 265 20 265 28 q 259 6 265 13 q 243 0 253 0 l 54 0 q 38 7 43 0 q 32 21 32 14 q 38 35 32 29 q 54 42 43 42 q 76 71 71 42 q 81 133 81 100 l 81 858 q 76 874 81 867 q 67 886 72 881 q 53 896 61 892 q 36 908 42 901 q 33 922 32 915 q 53 938 35 929 q 130 971 93 957 q 176 988 167 985 q 197 994 189 992 q 208 996 204 997 q 214 987 213 994 q 215 963 215 979 l 215 557 q 239 587 224 569 q 277 620 254 604 q 331 647 300 636 q 401 658 363 658 q 467 645 443 658 q 505 611 492 632 q 522 565 518 590 q 525 514 525 539 l 525 135 q 530 71 525 101 q 551 40 535 40 z "},"i":{"ha":319,"x_min":47,"x_max":281,"o":"m 258 40 q 275 34 269 40 q 281 20 281 28 q 274 6 281 13 q 258 0 268 0 l 69 0 q 53 6 58 0 q 47 20 47 13 q 53 34 47 28 q 69 40 58 40 q 92 67 85 40 q 100 122 100 93 l 100 517 q 95 531 100 525 q 85 543 90 538 q 69 554 78 549 q 51 567 57 560 q 49 581 47 574 q 68 596 51 588 q 147 629 110 615 q 193 646 183 643 q 212 652 206 650 q 222 653 218 654 q 226 644 225 651 q 226 621 226 638 l 226 117 q 235 65 228 89 q 258 40 243 40 m 156 686 q 103 708 125 686 q 81 761 81 729 q 103 815 81 793 q 156 836 125 836 q 209 815 188 836 q 231 761 231 793 q 209 708 231 729 q 156 686 188 686 z "},"j":{"ha":296,"x_min":-172,"x_max":215,"o":"m 140 838 q 193 816 171 838 q 215 763 215 794 q 193 709 215 731 q 140 688 171 688 q 87 709 108 688 q 65 763 65 731 q 87 816 65 794 q 140 838 108 838 m 176 646 q 197 653 189 650 q 208 654 204 656 q 214 645 213 653 q 215 621 215 638 l 215 517 l 214 -58 q 199 -168 214 -124 q 159 -240 185 -212 q 97 -278 133 -267 q 15 -290 60 -290 q -56 -278 -22 -290 q -115 -244 -89 -265 q -157 -196 -142 -224 q -172 -137 -172 -168 q -151 -80 -172 -101 q -93 -58 -129 -58 q -56 -70 -71 -58 q -37 -100 -42 -82 q -37 -137 -32 -118 q -61 -174 -43 -157 q -80 -206 -78 -189 q -72 -238 -82 -224 q -39 -263 -61 -253 q 15 -274 -17 -274 q 58 -254 44 -274 q 76 -203 71 -235 q 81 -134 82 -172 q 81 -58 81 -96 l 81 517 q 76 532 81 525 q 67 544 72 539 q 53 554 61 550 q 36 567 42 560 q 33 581 32 574 q 53 596 35 588 q 130 629 93 615 q 176 646 167 643 z "},"k":{"ha":636,"x_min":46,"x_max":594,"o":"m 575 39 q 594 19 594 39 q 575 0 594 0 l 392 0 q 372 19 372 0 q 392 39 372 39 q 404 47 399 39 q 408 61 410 56 q 392 121 406 82 q 359 203 378 160 q 322 285 340 246 q 293 344 303 324 l 229 275 l 229 161 q 229 125 229 146 q 232 85 229 104 q 240 53 235 67 q 257 40 246 40 q 274 34 268 40 q 279 20 279 28 q 273 6 279 13 q 257 0 267 0 l 68 0 q 51 6 57 0 q 46 20 46 13 q 51 34 46 28 q 68 40 57 40 q 85 53 79 40 q 92 85 90 67 q 94 125 94 104 q 94 161 94 146 l 94 861 q 90 876 94 869 q 81 888 86 882 q 68 899 75 893 q 50 911 56 904 q 48 925 46 918 q 67 940 50 932 q 144 973 107 960 q 192 989 182 986 q 222 997 215 997 q 229 965 229 997 l 229 318 l 457 553 q 465 571 468 563 q 447 584 463 578 q 389 590 431 590 q 371 610 371 590 q 389 628 371 628 l 564 628 q 582 610 582 628 q 564 590 582 590 q 535 584 549 590 q 510 571 521 578 q 486 553 497 563 l 386 446 q 406 397 392 431 q 436 321 419 363 q 472 234 453 279 q 506 151 490 189 q 533 86 521 113 q 547 56 544 60 q 575 39 560 39 z "},"l":{"ha":289,"x_min":31,"x_max":265,"o":"m 243 40 q 260 34 254 40 q 265 20 265 28 q 259 6 265 13 q 243 0 253 0 l 54 0 q 38 6 43 0 q 32 20 32 13 q 38 34 32 28 q 54 40 43 40 q 70 62 65 40 q 78 111 75 83 q 79 183 81 143 l 79 861 q 75 876 79 869 q 65 888 71 882 q 53 899 60 893 q 35 911 40 904 q 33 925 31 918 q 51 940 35 932 q 128 973 92 960 q 176 989 165 986 q 196 996 189 993 q 207 997 203 999 q 213 989 211 996 q 214 965 214 982 l 214 861 l 215 165 q 215 128 215 150 q 217 88 215 107 q 226 54 219 68 q 243 40 232 40 z "},"m":{"ha":940,"x_min":46,"x_max":899,"o":"m 876 40 q 894 34 889 40 q 899 20 899 28 q 892 6 899 13 q 876 0 886 0 l 700 0 q 683 6 689 0 q 678 20 678 13 q 683 34 678 28 q 700 40 688 40 q 713 49 708 40 q 722 70 718 57 q 726 100 725 83 q 726 132 726 117 l 726 514 q 725 546 726 531 q 718 573 724 561 q 699 592 713 585 q 664 600 686 600 q 619 592 639 600 q 583 572 599 583 q 557 546 568 560 q 540 521 546 532 l 540 132 q 541 100 540 117 q 544 70 542 83 q 553 49 547 57 q 567 40 558 40 q 583 34 578 40 q 589 20 589 28 q 583 6 589 13 q 567 0 576 0 l 389 0 q 372 6 378 0 q 367 20 367 13 q 372 34 367 28 q 389 40 378 40 q 403 49 397 40 q 411 70 408 57 q 415 100 414 83 q 417 132 417 117 l 417 514 q 415 546 417 531 q 408 573 414 561 q 390 592 403 585 q 354 600 376 600 q 308 592 328 600 q 272 571 288 583 q 247 544 257 558 q 229 519 236 531 l 229 132 q 230 100 229 117 q 234 70 231 83 q 243 49 238 57 q 257 40 249 40 q 274 34 268 40 q 279 20 279 28 q 273 6 279 13 q 257 0 267 0 l 68 0 q 51 6 57 0 q 46 20 46 13 q 51 34 46 28 q 68 40 57 40 q 81 49 76 40 q 90 70 86 57 q 94 100 93 83 q 94 132 94 117 l 94 511 q 90 526 94 519 q 81 539 86 533 q 68 549 75 544 q 50 561 56 554 q 48 575 46 568 q 67 590 50 582 q 108 609 88 600 q 145 624 128 618 q 175 635 163 631 q 192 640 188 639 q 222 649 215 649 q 229 617 229 649 l 229 556 q 253 585 238 568 q 292 619 269 603 q 347 647 315 636 q 417 658 378 658 q 508 626 483 658 q 538 553 533 594 q 561 583 546 565 q 600 618 576 601 q 655 647 624 635 q 726 658 686 658 q 792 645 768 658 q 830 611 817 632 q 847 565 843 590 q 850 514 850 539 l 850 132 q 851 100 850 117 q 855 70 851 83 q 863 49 858 57 q 876 40 868 40 z "},"n":{"ha":607,"x_min":39,"x_max":582,"o":"m 560 40 q 576 34 571 40 q 582 20 582 28 q 576 6 582 13 q 560 0 569 0 l 382 0 q 365 6 371 0 q 360 20 360 13 q 365 34 360 28 q 382 40 371 40 q 396 49 390 40 q 404 70 401 57 q 408 100 407 83 q 410 132 410 117 l 410 514 q 408 546 410 531 q 401 573 407 561 q 383 592 396 585 q 347 600 369 600 q 301 592 321 600 q 265 571 281 583 q 240 544 250 558 q 222 519 229 531 l 222 132 q 223 100 222 117 q 227 70 224 83 q 236 49 231 57 q 250 40 242 40 q 267 34 261 40 q 272 20 272 28 q 266 6 272 13 q 250 0 260 0 l 61 0 q 44 6 50 0 q 39 20 39 13 q 44 34 39 28 q 61 40 50 40 q 74 49 69 40 q 83 70 79 57 q 87 100 86 83 q 88 132 88 117 l 88 511 q 83 526 88 519 q 74 539 79 533 q 61 549 68 544 q 43 561 49 554 q 41 575 39 568 q 60 590 43 582 q 101 609 81 600 q 138 624 121 618 q 168 635 156 631 q 185 640 181 639 q 215 649 208 649 q 222 617 222 649 l 222 556 q 247 585 231 568 q 285 619 263 603 q 340 647 308 636 q 410 658 371 658 q 476 645 451 658 q 513 611 500 632 q 530 565 526 590 q 533 514 533 539 l 533 132 q 534 100 533 117 q 538 70 535 83 q 546 49 540 57 q 560 40 551 40 z "},"o":{"ha":536,"x_min":35,"x_max":513,"o":"m 274 651 q 342 640 301 651 q 421 592 383 628 q 485 490 458 556 q 513 317 513 425 l 513 314 q 485 143 513 207 q 421 45 458 79 q 342 1 383 11 q 274 -10 301 -10 q 205 1 246 -10 q 126 45 164 11 q 62 143 89 79 q 35 314 35 207 l 35 317 q 62 490 35 425 q 126 592 89 556 q 205 640 164 628 q 274 651 246 651 m 378 314 q 376 429 378 372 q 363 531 374 486 q 332 605 353 576 q 274 633 311 633 q 215 605 236 633 q 184 531 194 576 q 172 430 174 486 q 169 317 169 374 l 169 314 q 172 202 169 257 q 184 104 174 147 q 215 35 194 61 q 274 8 236 8 q 332 35 311 8 q 363 104 353 61 q 376 202 374 147 q 378 314 378 257 z "},"p":{"ha":608,"x_min":44,"x_max":575,"o":"m 388 651 q 442 639 410 651 q 503 590 474 626 q 554 488 533 554 q 575 317 575 422 q 554 147 575 211 q 503 47 533 82 q 442 1 474 13 q 388 -10 410 -10 q 328 -2 354 -10 q 282 17 301 6 q 249 42 263 29 q 228 67 236 56 l 228 -103 q 228 -142 228 -117 q 233 -191 229 -167 q 242 -233 236 -215 q 257 -251 247 -251 q 274 -258 268 -251 q 279 -272 279 -264 q 273 -285 279 -279 q 257 -292 267 -292 l 68 -292 q 51 -285 57 -292 q 46 -272 46 -279 q 51 -258 46 -264 q 68 -251 57 -251 q 82 -234 76 -251 q 90 -193 88 -217 q 93 -144 93 -169 q 93 -104 93 -119 l 93 513 q 89 527 93 521 q 79 539 85 533 q 67 550 74 544 q 49 563 54 556 q 47 576 44 569 q 65 592 49 583 q 143 625 106 611 q 190 642 181 639 q 221 649 214 649 q 228 617 228 649 l 228 567 q 249 592 236 578 q 282 620 263 607 q 328 642 301 633 q 388 651 354 651 m 349 18 q 400 44 382 18 q 427 114 418 71 q 438 210 436 157 q 440 317 440 263 q 440 426 440 371 q 433 524 440 481 q 407 596 426 568 q 349 624 388 624 q 304 614 324 624 q 270 590 285 604 q 245 558 256 575 q 228 526 235 540 l 228 108 q 251 80 238 96 q 281 50 265 64 q 313 27 296 36 q 349 18 331 18 z "},"q":{"ha":607,"x_min":47,"x_max":576,"o":"m 529 -97 q 529 -138 529 -112 q 532 -189 529 -164 q 540 -232 535 -214 q 554 -250 544 -250 q 571 -256 565 -250 q 576 -271 576 -262 q 570 -285 576 -279 q 554 -292 564 -292 l 365 -292 q 349 -285 354 -292 q 343 -271 343 -279 q 349 -256 343 -262 q 365 -250 354 -250 q 381 -231 375 -250 q 389 -187 386 -212 q 393 -135 392 -161 q 394 -94 394 -108 l 394 75 q 373 49 386 64 q 340 22 360 35 q 294 1 321 10 q 233 -8 268 -8 q 179 4 211 -8 q 118 53 147 17 q 68 154 89 89 q 47 325 47 219 q 68 495 47 431 q 118 594 89 560 q 179 640 147 629 q 233 651 211 651 q 292 644 267 651 q 336 626 317 636 q 369 602 356 615 q 390 579 382 589 q 396 614 392 596 q 411 643 400 632 q 440 657 424 656 q 476 653 457 658 q 515 638 494 647 q 557 619 536 629 q 575 604 574 611 q 572 590 576 597 q 556 578 567 583 q 542 567 547 572 q 529 540 529 554 l 529 -97 m 274 21 q 318 31 299 21 q 352 54 338 40 q 377 85 367 68 q 394 117 388 101 l 394 535 q 377 564 388 549 q 352 592 367 579 q 318 614 338 606 q 274 622 299 622 q 222 596 240 622 q 195 527 204 569 q 184 432 186 485 q 182 325 182 379 q 184 217 182 271 q 195 119 186 163 q 222 48 204 75 q 274 21 240 21 z "},"r":{"ha":535,"x_min":46,"x_max":504,"o":"m 396 654 q 473 621 442 654 q 504 544 504 588 q 483 481 504 506 q 435 457 463 457 q 403 464 418 457 q 381 482 389 471 q 371 509 372 493 q 379 544 369 525 q 392 599 397 579 q 366 619 388 618 q 309 599 344 619 q 229 536 274 579 l 229 132 q 235 86 231 106 q 242 54 238 68 q 257 40 247 40 q 274 34 268 40 q 279 20 279 28 q 273 6 279 13 q 257 0 267 0 l 68 0 q 51 6 57 0 q 46 20 46 13 q 51 34 46 28 q 68 40 57 40 q 81 54 76 40 q 89 86 86 68 q 94 132 93 106 l 94 526 q 90 541 94 535 q 81 553 86 547 q 68 564 75 558 q 50 576 56 569 q 48 590 46 583 q 67 606 50 597 l 150 656 q 186 662 167 667 q 217 640 206 657 q 226 613 224 629 q 229 564 229 597 q 252 586 236 571 q 290 617 268 601 q 340 643 313 632 q 396 654 367 654 z "},"s":{"ha":564,"x_min":43,"x_max":529,"o":"m 256 385 q 352 343 303 364 q 440 297 401 322 q 504 240 479 272 q 529 165 529 208 q 506 77 529 111 q 447 24 482 43 q 368 -3 411 4 q 288 -10 325 -10 q 210 0 253 -10 q 131 30 168 10 q 68 81 93 50 q 43 151 43 111 q 53 201 43 179 q 81 236 64 222 q 117 253 97 250 q 158 246 138 256 q 188 222 179 236 q 196 191 196 207 q 188 159 196 175 q 165 129 179 143 q 152 92 147 111 q 177 57 157 72 q 226 31 197 42 q 288 21 256 21 q 376 44 342 21 q 419 101 411 68 q 405 172 428 135 q 319 238 382 210 q 243 270 288 251 q 158 316 199 289 q 89 378 118 343 q 60 463 60 414 q 115 599 60 547 q 288 650 171 650 q 383 635 342 650 q 451 599 424 621 q 493 551 479 578 q 507 501 507 525 q 498 447 507 468 q 474 413 489 425 q 442 399 460 401 q 410 403 425 396 q 367 451 374 417 q 396 522 360 486 q 416 557 413 539 q 407 591 419 575 q 365 617 394 607 q 288 628 336 628 q 194 597 224 628 q 163 526 164 567 q 185 444 161 485 q 256 385 210 404 z "},"t":{"ha":347,"x_min":6,"x_max":381,"o":"m 360 646 q 374 640 368 646 q 381 625 381 633 q 374 611 381 617 q 360 606 368 606 l 246 606 l 246 139 q 254 90 246 108 q 274 60 263 71 q 299 44 286 49 q 322 40 313 40 q 339 34 333 40 q 344 20 344 28 q 338 6 344 13 q 322 0 332 0 l 246 0 q 150 39 189 0 q 111 135 111 78 l 111 606 l 26 606 q 12 611 18 606 q 6 625 6 617 q 12 640 6 633 q 26 646 18 646 q 73 660 43 646 q 133 697 103 674 q 184 751 163 719 q 206 815 206 782 q 211 830 206 824 q 225 836 217 836 q 240 830 233 836 q 246 815 246 824 l 246 696 q 250 667 246 676 q 267 652 254 657 q 301 647 279 647 q 360 646 324 646 z "},"u":{"ha":592,"x_min":15,"x_max":563,"o":"m 540 42 q 557 35 551 42 q 563 21 563 29 q 556 6 563 13 q 540 0 550 0 l 403 0 q 387 6 393 0 q 379 21 381 13 l 379 103 q 358 73 372 92 q 319 35 343 54 q 262 3 294 17 q 188 -10 229 -10 q 122 4 146 -10 q 84 40 97 18 q 67 88 71 61 q 64 139 64 114 l 64 511 q 60 526 64 519 q 50 539 56 533 q 38 549 44 544 q 19 561 25 554 q 17 575 15 568 q 36 590 19 582 q 77 609 57 600 q 115 626 97 618 q 144 638 132 633 q 161 644 157 643 q 184 646 181 653 q 188 621 188 639 l 188 139 q 189 106 188 122 q 196 77 190 90 q 214 56 201 64 q 250 49 226 49 q 301 59 279 49 q 338 84 322 69 q 364 114 354 99 q 379 140 374 129 l 379 511 q 375 526 379 519 q 365 539 371 533 q 353 549 360 544 q 335 561 340 554 q 333 575 331 568 q 351 590 335 582 q 430 626 393 610 q 476 644 467 642 q 507 649 500 653 q 514 621 514 644 l 514 144 q 515 128 514 144 q 518 92 515 111 q 526 58 521 74 q 540 42 532 42 z "},"v":{"ha":550,"x_min":18,"x_max":560,"o":"m 540 644 q 560 626 560 644 q 540 607 560 607 q 512 601 522 607 q 494 588 501 594 q 483 568 488 579 l 318 17 q 310 0 315 10 q 290 -10 306 -10 q 271 3 278 -10 q 265 17 267 8 l 65 590 q 60 599 64 594 q 38 607 51 607 q 18 626 18 607 q 38 644 18 644 l 221 644 q 239 626 239 644 q 221 607 239 607 q 207 603 210 607 q 203 594 204 599 q 204 583 201 589 l 346 207 l 453 568 q 456 588 457 579 q 448 601 454 594 q 424 607 442 607 q 404 626 404 607 q 424 644 404 644 l 540 644 l 540 644 z "},"w":{"ha":810,"x_min":3,"x_max":853,"o":"m 833 646 q 853 628 853 646 q 833 608 853 608 q 805 602 815 608 q 788 589 794 596 q 776 569 781 581 l 611 19 q 603 1 608 13 q 583 -10 599 -10 q 572 -6 576 -10 q 564 4 567 -1 q 558 19 560 10 l 421 400 l 303 19 q 295 1 300 13 q 275 -10 290 -10 q 263 -6 268 -10 q 256 4 258 -1 q 250 19 251 10 l 50 592 q 44 600 49 596 q 22 608 36 608 q 3 628 3 608 q 22 646 3 646 l 206 646 q 224 628 224 646 q 206 608 224 608 q 192 604 194 608 q 188 596 189 600 q 189 585 186 590 l 331 210 l 404 446 l 358 592 q 353 600 357 596 q 331 608 344 608 q 311 628 311 608 q 331 646 311 646 l 514 646 q 532 628 532 646 q 514 608 532 608 q 500 604 503 608 q 496 596 497 600 q 497 585 494 590 l 639 210 l 746 569 q 749 589 750 581 q 741 602 747 596 q 717 608 735 608 q 697 628 697 608 q 717 646 697 646 l 833 646 l 833 646 z "},"x":{"ha":564,"x_min":3,"x_max":517,"o":"m 497 608 q 471 601 482 608 q 451 588 460 594 q 435 567 442 578 q 390 483 413 524 q 350 409 371 447 q 314 342 329 371 q 360 254 333 303 q 410 161 386 206 q 465 57 436 110 q 472 49 468 53 q 492 40 481 40 q 511 25 507 40 q 508 8 514 15 q 493 0 503 0 l 310 0 q 290 19 290 0 q 296 33 290 26 q 310 40 301 40 q 329 51 329 40 q 326 63 329 57 l 221 258 l 115 79 q 111 60 110 68 q 119 47 113 53 q 144 40 125 40 l 146 40 q 160 34 154 40 q 165 19 165 28 q 159 6 165 11 q 144 0 153 0 l 24 0 q 9 6 15 0 q 3 19 3 11 q 8 34 3 28 q 22 40 14 40 q 49 47 38 40 q 69 60 61 53 q 85 79 78 68 q 131 151 107 115 q 172 219 150 183 q 210 283 193 254 q 163 373 190 321 q 113 474 136 425 q 54 589 85 529 q 46 599 51 593 q 37 605 42 601 q 26 608 32 608 q 13 614 18 608 q 8 628 7 619 q 28 646 8 646 l 210 646 q 226 639 219 646 q 229 622 232 632 q 210 608 225 608 q 194 604 199 608 q 190 596 190 600 q 193 583 190 590 l 303 367 l 404 567 q 408 588 410 578 q 401 601 407 594 q 375 608 394 608 q 356 628 356 608 q 362 640 356 635 q 375 646 368 646 l 497 646 q 517 628 514 646 q 497 608 517 608 z "},"y":{"ha":588,"x_min":3,"x_max":571,"o":"m 553 646 q 571 626 571 646 q 565 613 571 619 q 553 607 560 607 q 522 600 533 607 q 503 586 510 593 q 490 567 494 578 q 428 364 461 467 q 398 271 414 319 q 364 172 382 222 q 327 72 346 122 q 290 -25 308 21 q 248 -131 268 -82 q 206 -217 228 -181 q 156 -274 183 -253 q 93 -296 129 -296 q 28 -269 53 -296 q 3 -204 3 -242 q 24 -140 3 -169 q 81 -111 44 -111 q 119 -126 106 -111 q 135 -158 133 -140 q 128 -194 138 -176 q 97 -218 119 -212 q 74 -233 82 -222 q 66 -253 67 -243 q 72 -272 65 -264 q 93 -279 79 -279 q 138 -260 118 -279 q 178 -206 158 -240 q 217 -125 197 -171 q 257 -25 236 -79 q 262 -11 260 -18 q 267 3 264 -4 l 61 590 q 56 599 60 594 q 33 607 47 607 q 19 613 25 607 q 14 626 14 619 q 33 646 14 646 l 217 646 q 235 626 235 646 q 229 613 235 619 q 217 607 224 607 q 203 603 206 607 q 199 596 200 600 q 200 585 197 590 l 338 192 q 385 329 363 263 q 424 449 407 396 q 460 567 443 511 q 456 586 463 578 q 433 600 449 593 q 382 607 417 607 q 369 613 375 607 q 364 626 364 619 q 382 646 364 646 l 553 646 l 553 646 z "},"z":{"ha":550,"x_min":31,"x_max":521,"o":"m 506 646 q 519 641 517 646 q 518 628 521 636 q 508 608 515 619 q 494 585 501 597 q 458 519 479 557 q 413 435 438 481 q 361 342 388 390 q 310 249 335 294 q 185 21 250 140 q 242 19 217 19 q 284 18 264 18 q 308 18 304 18 q 391 31 361 18 q 435 65 421 43 q 453 118 450 88 q 456 185 456 149 q 462 199 456 193 q 475 204 468 204 q 494 185 494 204 l 494 22 q 472 0 494 0 l 54 0 q 35 5 39 0 q 34 20 31 10 q 48 46 38 31 q 72 83 58 61 q 108 143 86 107 q 154 222 129 179 q 206 312 179 265 q 258 403 233 358 q 385 625 318 508 l 249 626 q 169 614 196 626 q 131 580 142 601 q 121 528 121 558 q 121 461 121 497 q 114 447 121 453 q 99 442 107 442 q 81 461 81 442 l 81 618 q 85 638 81 631 q 106 646 90 646 l 506 646 l 506 646 z "},"d":{"ha":579,"x_min":32,"x_max":561,"o":"m 539 40 q 556 34 551 40 q 561 20 561 28 q 555 6 561 13 q 539 0 549 0 l 401 0 q 378 21 381 0 l 378 67 q 356 42 369 56 q 324 17 343 29 q 278 -2 304 6 q 218 -10 251 -10 q 164 1 196 -10 q 103 48 132 13 q 53 147 74 83 q 32 318 32 211 q 53 489 32 424 q 103 590 74 554 q 164 639 132 626 q 218 651 196 651 q 279 643 253 651 q 325 622 306 635 q 358 596 344 610 q 379 571 371 582 l 379 858 q 375 874 379 867 q 365 886 371 881 q 351 896 360 892 q 335 908 340 901 q 332 922 331 915 q 351 938 333 929 q 428 971 392 957 q 475 988 465 985 q 495 994 488 992 q 507 996 503 997 q 513 987 511 994 q 514 963 514 979 l 514 858 q 513 557 514 679 q 513 355 513 435 q 513 232 513 275 q 513 169 513 189 q 513 144 513 149 q 513 139 513 140 q 513 105 513 122 q 517 73 514 88 q 525 49 519 58 q 539 40 531 40 m 258 18 q 303 26 283 18 q 337 48 322 35 q 361 77 351 61 q 378 107 371 93 l 379 531 q 362 562 372 546 q 337 592 351 578 q 303 614 322 606 q 258 622 283 622 q 207 595 225 622 q 180 524 189 568 q 169 426 171 481 q 167 318 167 372 q 169 210 167 264 q 180 114 171 157 q 207 44 189 71 q 258 18 225 18 z "},"A":{"ha":782,"x_min":33,"x_max":747,"o":"m 728 39 q 742 33 736 39 q 747 19 747 26 q 728 0 747 0 l 544 0 q 526 19 526 0 q 532 33 526 26 q 544 39 538 39 q 561 61 561 39 q 555 103 563 72 q 533 181 547 135 q 489 254 515 214 q 428 330 463 294 q 349 390 393 365 q 254 418 306 415 l 154 104 q 151 69 146 85 q 170 47 154 57 q 222 36 186 36 l 222 35 q 240 18 240 35 q 222 0 240 0 l 51 0 q 33 18 33 0 q 51 35 33 35 l 51 36 q 82 42 69 36 q 103 59 94 49 q 115 81 111 69 q 124 104 119 93 l 340 788 q 382 932 368 889 q 390 947 385 939 q 410 954 394 954 q 428 947 424 954 q 435 933 432 939 q 458 857 443 907 q 491 742 472 807 q 531 603 510 678 q 575 455 553 529 q 618 311 597 381 q 656 187 639 242 q 684 97 672 132 q 700 56 696 61 q 724 39 713 39 l 728 39 m 260 433 q 392 411 340 431 q 472 372 444 392 q 438 476 456 424 q 405 575 421 528 q 376 663 389 622 q 356 732 364 703 l 260 433 z "},"C":{"ha":694,"x_min":32,"x_max":668,"o":"m 535 571 q 502 590 518 575 q 480 628 486 606 q 480 676 474 650 q 511 726 486 701 q 553 799 546 761 q 544 869 561 838 q 488 922 528 901 q 386 943 447 943 q 276 894 317 943 q 213 773 235 846 q 184 615 190 700 q 178 458 178 531 q 184 293 178 372 q 213 153 190 214 q 276 57 235 93 q 386 21 317 21 q 508 53 458 21 q 586 128 557 85 q 628 215 615 171 q 640 283 640 260 q 644 298 640 292 q 656 304 649 304 q 664 300 660 304 q 668 283 668 296 q 651 192 668 243 q 601 94 635 140 q 513 17 567 49 q 386 -15 460 -15 q 235 20 301 -15 q 124 118 169 56 q 56 267 79 181 q 32 458 32 354 q 51 654 32 563 q 112 815 69 746 q 222 923 154 883 q 386 963 289 963 q 503 944 450 963 q 592 893 556 926 q 648 813 628 860 q 668 707 668 765 q 628 588 668 619 q 535 571 589 556 z "},"E":{"ha":672,"x_min":46,"x_max":624,"o":"m 597 951 q 618 944 613 951 q 624 924 624 936 l 624 767 q 617 752 624 758 q 603 746 611 746 q 589 752 594 746 q 583 767 583 758 q 582 833 583 803 q 563 884 581 863 q 502 917 544 906 q 378 929 460 929 l 229 929 l 229 507 l 346 507 q 378 508 357 507 q 422 518 400 510 q 460 546 444 526 q 476 601 476 565 q 496 621 476 621 q 510 615 504 621 q 517 601 517 610 l 517 390 q 510 376 517 382 q 496 369 504 369 q 482 376 488 369 q 476 390 476 382 q 460 446 476 426 q 422 474 444 465 q 378 483 400 482 q 346 485 357 485 l 229 485 l 229 22 l 378 22 q 502 34 460 22 q 563 67 544 46 q 582 119 581 89 q 583 185 583 149 q 603 204 583 204 q 617 199 611 204 q 624 185 624 193 l 624 28 q 618 8 624 15 q 597 0 613 0 l 68 0 q 51 6 57 0 q 46 20 46 13 q 51 34 46 28 q 68 40 57 40 q 85 53 79 40 q 92 85 90 67 q 94 125 94 104 q 94 161 94 146 l 94 824 q 90 883 94 854 q 68 911 85 911 q 51 917 57 911 q 46 931 46 924 q 51 945 46 939 q 68 951 57 951 l 597 951 l 597 951 z "},"D":{"ha":693,"x_min":42,"x_max":665,"o":"m 306 951 q 479 914 410 951 q 590 812 549 876 q 649 661 632 747 q 665 478 665 575 q 644 304 665 390 q 578 151 622 218 q 467 42 535 83 q 306 0 399 0 l 64 0 q 47 6 53 0 q 42 20 42 13 q 47 34 42 28 q 64 40 53 40 q 80 58 75 40 q 88 100 85 76 q 90 161 90 126 l 90 824 q 85 883 90 854 q 64 911 81 911 q 47 917 53 911 q 42 931 42 924 q 47 945 42 939 q 64 951 53 951 l 306 951 m 306 22 q 405 60 363 22 q 474 160 447 97 q 515 305 501 222 q 528 478 528 388 q 516 654 528 572 q 478 797 504 736 q 409 893 451 858 q 306 928 367 928 l 225 928 l 225 22 l 306 22 z "},"F":{"ha":647,"x_min":32,"x_max":610,"o":"m 583 951 q 604 944 599 951 q 610 924 610 936 l 610 767 q 603 753 610 758 q 589 747 597 747 q 569 767 569 747 q 568 833 569 803 q 549 884 567 863 q 488 917 531 906 q 364 929 446 929 l 215 929 l 215 507 l 332 507 q 365 508 343 507 q 408 518 386 510 q 447 546 431 526 q 463 601 463 565 q 482 621 463 621 q 503 601 500 621 l 503 389 q 497 376 503 382 q 483 369 492 369 q 463 390 465 369 q 448 438 463 419 q 413 467 433 457 q 369 481 392 476 q 332 485 347 485 l 215 485 l 215 125 q 222 67 217 94 q 243 40 226 40 q 260 34 254 40 q 265 20 265 28 q 259 6 265 13 q 243 0 253 0 l 54 0 q 39 6 44 0 q 33 20 33 13 q 38 34 33 28 q 54 40 43 40 q 71 54 65 40 q 78 87 76 68 q 81 126 81 106 q 81 160 81 147 l 81 824 q 76 883 81 854 q 54 911 71 911 q 38 917 43 911 q 32 931 32 924 q 38 945 32 939 q 54 951 43 951 l 583 951 l 583 951 z "},"G":{"ha":731,"x_min":46,"x_max":701,"o":"m 682 433 q 701 414 701 433 q 682 394 701 394 q 649 378 658 394 q 640 329 640 361 q 626 188 640 251 q 578 78 611 124 q 493 6 546 32 q 364 -19 440 -19 q 219 19 279 -19 q 120 125 158 58 q 64 282 82 192 q 46 476 46 372 q 68 683 46 592 q 132 836 90 774 q 234 932 174 899 q 371 965 294 965 q 483 947 431 965 q 576 896 536 929 q 638 815 615 863 q 661 707 661 767 q 652 656 661 678 q 629 621 643 635 q 599 601 615 607 q 565 594 582 594 q 526 603 546 594 q 495 626 507 611 q 481 663 483 642 q 493 708 479 683 q 526 808 525 764 q 508 881 528 851 q 451 927 488 911 q 371 943 414 943 q 290 922 322 943 q 239 865 258 901 q 210 782 219 829 q 198 683 201 735 q 195 578 194 632 q 196 476 196 525 q 197 306 196 390 q 211 154 197 221 q 260 46 225 88 q 364 4 294 4 q 470 37 436 4 q 515 118 504 69 q 524 224 526 167 q 521 329 521 281 q 511 378 521 361 q 478 394 501 394 q 458 414 458 394 q 478 433 458 433 l 682 433 l 682 433 z "},"H":{"ha":738,"x_min":33,"x_max":704,"o":"m 682 42 q 699 35 693 42 q 704 21 704 29 q 698 6 704 13 q 682 0 692 0 l 493 0 q 478 6 483 0 q 472 21 472 13 q 477 35 472 29 q 493 42 482 42 q 513 51 506 42 q 524 74 521 60 q 529 106 528 89 q 531 140 531 124 q 524 274 531 204 q 485 405 517 343 q 389 513 454 467 q 207 578 324 560 l 207 125 q 214 67 208 94 q 243 40 219 40 q 260 34 254 40 q 265 20 265 28 q 259 6 265 13 q 243 0 253 0 l 54 0 q 39 6 44 0 q 33 20 33 13 q 38 34 33 28 q 54 40 43 40 q 74 49 67 40 q 84 73 81 58 q 89 105 88 88 q 90 139 90 122 l 90 811 q 89 845 90 828 q 84 877 88 863 q 74 901 81 892 q 54 911 67 911 q 38 917 43 911 q 33 931 33 924 q 39 945 33 939 q 54 951 44 951 l 243 951 q 259 945 253 951 q 265 931 265 939 q 260 917 265 924 q 243 911 254 911 q 225 903 232 911 q 214 883 218 896 q 208 856 210 871 q 207 826 207 840 l 207 594 q 347 581 286 592 q 449 557 408 569 q 531 525 496 542 l 531 813 q 529 847 531 829 q 524 878 528 864 q 513 902 521 893 q 493 911 506 911 q 476 917 482 911 q 471 931 471 924 q 476 945 471 939 q 493 951 481 951 l 682 951 q 698 945 692 951 q 704 931 704 939 q 699 917 704 924 q 682 911 693 911 q 653 884 660 911 q 647 826 647 857 l 647 126 q 653 69 647 96 q 682 42 658 42 z "},"I":{"ha":318,"x_min":44,"x_max":278,"o":"m 256 911 q 228 883 238 911 q 218 824 219 854 l 218 161 q 220 125 218 146 q 226 85 222 104 q 238 53 231 67 q 256 40 244 40 q 272 34 267 40 q 278 20 278 28 q 272 6 278 13 q 256 0 265 0 l 67 0 q 50 6 56 0 q 44 20 44 13 q 50 34 44 28 q 67 40 56 40 q 84 53 78 40 q 94 85 90 67 q 98 125 97 104 q 99 161 99 146 l 99 824 q 91 883 99 854 q 67 911 83 911 q 50 917 56 911 q 44 931 44 924 q 50 945 44 939 q 67 951 56 951 l 256 951 q 272 945 265 951 q 278 931 278 939 q 272 917 278 924 q 256 911 267 911 z "},"J":{"ha":647,"x_min":32,"x_max":615,"o":"m 593 950 q 609 944 603 950 q 615 930 615 938 q 610 916 615 922 q 593 910 604 910 q 576 897 582 910 q 569 866 571 885 q 567 826 567 847 q 567 789 567 806 l 567 254 q 543 123 567 175 q 483 41 519 71 q 400 -1 446 11 q 311 -12 354 -12 q 200 3 251 -12 q 111 47 149 18 q 53 116 74 75 q 32 207 32 157 q 47 265 32 239 q 84 304 61 290 q 135 318 107 318 q 189 300 163 318 q 216 265 207 286 q 223 222 225 244 q 207 179 221 200 q 167 146 193 158 q 140 112 142 135 q 158 66 138 89 q 217 26 178 43 q 311 10 256 10 q 390 38 364 10 q 424 106 415 67 q 433 188 433 146 q 432 254 432 229 l 432 789 q 432 826 432 806 q 429 866 432 847 q 421 897 426 885 q 404 910 415 910 q 388 916 393 910 q 382 930 382 922 q 388 944 382 938 q 404 950 393 950 l 593 950 l 593 950 z "},"K":{"ha":757,"x_min":46,"x_max":718,"o":"m 699 913 q 658 905 675 913 q 629 888 640 897 q 606 863 615 876 l 431 642 q 463 561 442 614 q 510 444 485 508 q 563 314 536 381 q 613 191 590 247 q 652 97 636 135 q 671 56 668 60 q 699 39 683 39 q 713 33 707 39 q 718 19 718 26 q 699 0 718 0 l 501 0 q 488 6 494 0 q 482 19 482 11 q 488 33 482 26 q 501 39 494 39 q 515 47 510 39 q 518 61 519 56 q 505 108 517 75 q 476 186 493 142 q 439 281 460 231 q 398 376 418 331 q 361 461 378 422 q 335 521 344 500 l 229 389 l 229 161 q 230 120 229 142 q 233 81 231 99 q 240 52 235 64 q 254 40 244 40 q 272 34 267 40 q 278 20 278 28 q 272 6 278 13 q 257 0 267 0 l 68 0 q 52 6 57 0 q 47 20 47 13 q 52 34 47 28 q 68 40 57 40 q 80 53 75 40 q 88 83 85 65 q 93 123 92 101 q 94 161 94 144 l 94 824 q 90 883 94 854 q 68 911 85 911 q 51 917 57 911 q 46 931 46 924 q 51 945 46 939 q 68 951 57 951 l 257 951 q 273 945 267 951 q 279 931 279 939 q 274 917 279 924 q 257 911 268 911 q 235 883 240 911 q 229 825 231 856 l 229 433 l 568 863 q 579 888 581 876 q 564 905 578 897 q 508 913 550 913 q 489 932 489 913 q 508 951 489 951 l 699 951 q 718 932 718 951 q 699 913 718 913 z "},"L":{"ha":700,"x_min":46,"x_max":660,"o":"m 640 204 q 653 199 647 204 q 660 185 660 193 l 660 28 q 654 8 660 15 q 633 0 649 0 l 68 0 q 51 6 57 0 q 46 20 46 13 q 51 34 46 28 q 68 40 57 40 q 90 68 85 40 q 94 128 94 96 l 94 811 q 95 845 94 828 q 94 877 96 863 q 86 901 92 892 q 68 911 81 911 q 51 917 57 911 q 46 931 46 924 q 50 944 46 938 q 68 951 54 951 l 257 951 q 273 945 267 951 q 279 931 279 939 q 274 917 279 924 q 257 911 268 911 q 239 903 244 911 q 231 883 233 896 q 229 856 229 871 q 229 826 229 840 l 229 22 l 317 22 q 415 28 363 22 q 514 52 468 35 q 590 101 560 69 q 621 185 621 133 q 640 204 621 204 z "},"M":{"ha":926,"x_min":46,"x_max":888,"o":"m 865 40 q 883 34 878 40 q 888 20 888 28 q 881 6 888 13 q 865 0 875 0 l 678 0 q 661 6 667 0 q 656 20 656 13 q 660 34 656 28 q 678 40 665 40 q 694 53 689 40 q 702 84 700 65 q 704 124 704 103 q 704 161 704 144 l 704 785 l 458 15 q 453 3 457 8 q 435 -10 446 -10 q 413 3 419 -10 q 407 17 408 8 q 391 68 403 29 q 361 163 379 107 q 322 287 343 219 q 278 423 300 354 q 235 557 256 492 q 199 672 215 622 q 172 753 182 722 q 163 785 163 783 l 163 103 q 165 80 163 92 q 176 59 168 68 q 197 44 183 50 q 233 38 211 38 q 247 32 240 38 q 253 18 253 26 q 247 5 253 10 q 233 0 240 0 l 65 0 q 46 19 46 0 q 51 33 46 26 q 65 39 57 39 q 122 60 108 39 q 135 104 135 82 l 135 865 q 124 889 132 878 q 103 905 117 897 q 67 913 90 913 q 47 932 47 913 q 67 951 47 951 l 233 951 q 260 945 250 951 q 278 932 271 939 q 289 913 285 924 l 493 244 l 699 906 q 708 928 701 918 q 724 944 714 936 q 749 951 733 951 l 865 951 q 885 932 885 951 q 865 913 885 913 q 849 904 854 913 q 842 883 844 896 q 840 854 840 869 q 839 824 839 839 l 839 161 q 839 124 839 144 q 842 84 839 103 q 849 53 844 65 q 865 40 854 40 z "},"N":{"ha":825,"x_min":46,"x_max":790,"o":"m 771 950 q 784 944 778 950 q 790 931 790 938 q 784 917 790 922 q 771 911 778 911 q 735 905 749 911 q 713 890 721 899 q 703 869 706 881 q 700 846 700 857 l 700 14 q 686 0 700 0 q 676 6 682 0 q 672 13 674 8 l 163 779 l 163 104 q 165 81 163 93 q 176 60 168 69 q 197 44 183 50 q 233 38 211 38 q 247 32 240 38 q 253 18 253 26 q 247 6 253 11 q 233 0 240 0 l 65 0 q 46 19 46 0 q 65 39 46 39 q 122 60 108 39 q 135 104 135 82 l 135 828 q 132 850 135 836 q 123 878 129 864 q 106 901 117 892 q 78 911 96 911 q 65 917 71 911 q 58 931 58 922 q 65 944 58 938 q 78 950 71 950 l 196 950 q 229 944 215 950 q 251 931 243 938 q 268 911 261 922 l 672 300 l 672 846 q 659 890 672 868 q 603 911 646 911 q 589 917 594 911 q 583 931 583 924 q 603 950 583 950 l 771 950 l 771 950 z "},"O":{"ha":694,"x_min":50,"x_max":661,"o":"m 364 960 q 472 933 418 960 q 567 849 525 907 q 635 698 608 790 q 661 474 661 606 q 635 248 661 340 q 567 97 608 156 q 472 13 525 39 q 364 -14 418 -14 q 258 13 314 -14 q 156 97 203 39 q 80 248 110 156 q 50 474 50 340 q 80 698 50 606 q 156 849 110 790 q 258 933 203 907 q 364 960 314 960 m 364 13 q 444 40 413 13 q 494 123 476 67 q 519 266 513 179 q 526 474 526 353 q 519 680 526 593 q 494 823 513 767 q 444 906 476 879 q 364 932 413 932 q 228 822 272 932 q 185 474 185 713 q 228 123 185 233 q 364 13 272 13 z "},"P":{"ha":681,"x_min":46,"x_max":646,"o":"m 229 125 q 235 67 231 94 q 257 40 240 40 q 274 34 268 40 q 279 20 279 28 q 273 6 279 13 q 257 0 267 0 l 68 0 q 51 6 57 0 q 46 20 46 13 q 51 34 46 28 q 68 40 57 40 q 83 49 78 40 q 90 73 88 58 q 94 105 93 88 q 94 139 94 122 l 94 824 q 90 883 94 854 q 68 911 85 911 q 51 917 57 911 q 46 931 46 924 q 51 945 46 939 q 68 951 57 951 l 229 951 l 311 951 q 447 944 386 951 q 553 915 508 936 q 622 856 597 894 q 646 754 646 817 q 615 641 646 688 q 528 565 583 594 q 396 522 472 536 q 229 507 319 508 l 229 125 m 229 929 l 229 529 q 434 594 364 536 q 504 754 504 651 q 488 840 504 806 q 446 893 472 874 q 385 921 419 913 q 311 929 350 929 l 229 929 z "},"Q":{"ha":651,"x_min":46,"x_max":619,"o":"m 619 478 q 602 283 619 367 q 556 139 585 199 q 487 43 526 79 q 403 -7 447 7 q 424 -137 408 -90 q 464 -207 440 -183 q 520 -231 492 -235 q 565 -210 549 -228 q 581 -169 582 -192 q 546 -135 579 -146 q 519 -117 528 -129 q 508 -92 510 -106 q 513 -65 507 -78 q 533 -46 519 -53 q 570 -39 554 -36 q 597 -53 586 -42 q 614 -83 608 -65 q 619 -118 619 -100 q 594 -202 619 -171 q 533 -244 568 -233 q 458 -247 497 -256 q 393 -211 419 -239 q 335 -131 357 -175 q 306 -15 313 -87 q 210 22 257 -10 q 128 114 164 54 q 69 264 92 174 q 46 478 46 354 q 72 702 46 610 q 139 853 97 794 q 232 938 181 911 q 333 964 283 964 q 439 938 388 964 q 531 853 490 911 q 595 702 571 794 q 619 478 619 610 m 401 19 q 469 172 454 57 q 485 478 485 288 q 479 685 485 597 q 458 832 474 774 q 412 919 442 890 q 333 947 382 947 q 258 919 288 947 q 211 832 228 890 q 188 685 194 774 q 181 478 181 597 q 186 277 181 365 q 207 131 192 189 q 350 199 299 218 q 401 71 401 179 l 401 19 m 213 110 q 303 3 242 17 q 301 35 301 18 q 301 71 301 51 q 294 122 301 104 q 276 142 288 139 q 248 136 264 144 q 213 110 232 128 z "},"S":{"ha":656,"x_min":46,"x_max":613,"o":"m 328 539 q 444 487 392 513 q 535 428 497 461 q 592 353 572 396 q 613 251 613 311 q 596 156 613 203 q 544 71 579 108 q 456 10 510 33 q 326 -12 401 -12 q 228 0 278 -12 q 138 37 179 13 q 72 97 97 61 q 46 182 46 133 q 60 249 46 222 q 97 292 75 276 q 144 310 118 307 q 192 307 169 314 q 227 280 214 300 q 242 236 240 260 q 231 189 243 213 q 188 151 218 165 q 151 112 156 136 q 165 65 146 88 q 224 25 183 42 q 326 8 265 8 q 419 31 383 8 q 470 88 454 53 q 483 167 486 124 q 462 253 481 211 q 408 333 443 296 q 325 393 374 371 q 218 447 268 419 q 131 508 168 474 q 72 588 93 543 q 50 693 50 632 q 69 801 50 751 q 124 887 89 850 q 209 944 160 924 q 319 965 258 965 q 437 946 385 965 q 525 895 489 926 q 581 824 561 864 q 600 743 600 783 q 589 676 600 703 q 560 635 578 650 q 522 615 543 619 q 483 614 501 610 q 444 637 463 619 q 420 677 426 654 q 422 726 414 700 q 461 774 431 751 q 494 822 488 793 q 485 878 501 851 q 428 925 469 906 q 319 944 388 944 q 226 920 263 944 q 172 858 189 896 q 157 774 156 821 q 178 683 158 728 q 236 599 199 638 q 328 539 274 560 z "},"T":{"ha":781,"x_min":46,"x_max":753,"o":"m 728 950 q 748 942 743 950 q 753 922 753 935 l 753 765 q 733 746 753 746 q 720 751 726 746 q 714 765 714 757 q 708 818 714 790 q 677 870 701 846 q 603 912 653 894 q 467 932 554 929 l 467 161 q 467 125 467 146 q 469 85 467 104 q 478 53 472 67 q 494 40 483 40 q 511 34 506 40 q 517 20 517 28 q 510 6 517 13 q 494 0 504 0 l 306 0 q 289 6 294 0 q 283 20 283 13 q 289 34 283 28 q 306 40 294 40 q 322 53 317 40 q 330 85 328 67 q 332 125 332 104 q 332 161 332 146 l 332 933 q 201 922 250 932 q 127 893 153 913 q 93 842 101 874 q 85 765 85 811 q 65 746 85 746 q 46 765 46 746 l 46 922 q 51 942 46 935 q 71 950 56 950 l 728 950 l 728 950 z "},"U":{"ha":796,"x_min":46,"x_max":756,"o":"m 735 910 q 688 895 703 910 q 667 864 674 881 q 660 819 660 844 l 663 271 q 644 152 663 204 q 590 63 625 100 q 508 8 556 26 q 403 -11 461 -11 q 305 -6 358 -11 q 205 27 251 0 q 126 111 158 54 q 94 271 94 168 l 94 786 q 95 824 94 803 q 94 864 96 844 q 87 897 93 883 q 68 910 81 910 q 51 916 57 910 q 46 930 46 922 q 51 944 46 938 q 68 950 57 950 l 257 950 q 273 944 267 950 q 279 930 279 938 q 274 916 279 922 q 257 910 268 910 q 238 897 244 910 q 230 864 232 883 q 228 824 228 844 q 229 786 229 803 l 229 271 q 272 73 229 136 q 403 10 315 10 q 510 35 467 10 q 580 98 554 60 q 617 182 606 136 q 628 271 628 228 l 628 819 q 621 864 628 844 q 599 895 614 881 q 556 910 585 910 q 542 916 547 910 q 536 931 536 922 q 556 950 536 950 l 735 950 q 749 944 743 950 q 756 931 756 939 q 749 916 756 922 q 735 910 743 910 z "},"V":{"ha":796,"x_min":44,"x_max":768,"o":"m 749 950 q 768 931 768 950 q 749 911 768 911 q 708 901 724 911 q 685 879 693 890 q 669 847 675 864 l 460 150 l 417 21 q 409 6 414 14 q 389 -1 404 -1 q 371 6 375 -1 q 364 21 367 14 q 330 131 353 56 q 279 301 307 207 q 220 498 251 396 q 163 685 189 600 q 117 829 136 771 q 92 896 97 888 q 68 914 78 914 l 64 914 q 44 932 44 914 q 64 951 44 951 l 260 951 q 278 932 278 951 q 260 914 278 914 q 243 890 243 914 q 253 837 242 881 q 282 730 264 793 q 323 591 300 667 q 368 442 346 515 q 410 304 390 368 q 443 200 431 240 l 638 847 q 645 874 642 863 q 645 894 649 886 q 627 907 642 903 q 582 911 613 911 q 563 931 563 911 q 582 950 563 950 l 749 950 l 749 950 z "},"W":{"ha":1301,"x_min":47,"x_max":1274,"o":"m 1254 950 q 1274 931 1274 950 q 1254 911 1274 911 q 1215 901 1231 911 q 1190 879 1199 890 q 1175 847 1179 864 l 965 150 q 940 73 950 106 q 924 21 931 40 q 916 6 921 14 q 896 -1 911 -1 q 877 6 882 -1 q 869 21 872 14 q 847 96 863 46 q 813 209 832 146 q 773 346 794 272 q 728 492 751 419 q 685 634 706 565 q 646 758 664 703 l 463 150 l 419 21 q 412 6 417 14 q 392 -1 407 -1 q 374 6 378 -1 q 367 21 369 14 q 333 131 356 56 q 282 301 310 207 q 223 498 254 396 q 165 685 192 600 q 119 829 139 771 q 94 896 100 888 q 71 914 81 914 l 67 914 q 47 932 47 914 q 67 951 47 951 l 263 951 q 281 932 281 951 q 263 914 281 914 q 246 890 246 914 q 256 837 244 881 q 285 730 267 793 q 326 591 303 667 q 371 442 349 515 q 413 304 393 368 q 446 200 433 240 l 629 808 q 608 869 617 846 q 597 896 600 892 q 589 906 593 903 q 582 911 585 908 q 575 914 581 911 l 569 914 q 550 932 550 914 q 569 951 550 951 l 765 951 q 785 932 785 951 q 765 914 785 914 q 749 890 751 914 q 758 837 747 881 q 788 730 769 793 q 828 591 806 667 q 874 442 851 515 q 916 304 896 368 q 949 200 936 240 l 1144 847 q 1151 874 1149 863 q 1151 894 1154 886 q 1133 907 1147 903 q 1088 911 1118 911 q 1068 931 1068 911 q 1088 950 1068 950 l 1254 950 l 1254 950 z "},"X":{"ha":781,"x_min":46,"x_max":735,"o":"m 715 39 q 735 19 735 39 q 729 6 735 13 q 715 0 724 0 l 532 0 q 519 6 525 0 q 514 19 514 13 q 532 39 514 39 q 546 42 543 39 q 550 50 549 46 q 549 61 550 56 l 344 399 q 271 244 304 313 q 243 186 257 215 q 218 133 229 157 q 199 94 207 110 q 190 75 192 79 q 185 62 188 68 q 185 50 182 56 q 201 42 189 44 q 240 39 214 39 q 260 19 260 39 q 240 0 260 0 l 81 0 q 61 19 61 0 q 81 39 61 39 q 119 44 104 39 q 143 57 135 50 q 157 75 153 64 l 328 438 l 93 896 q 86 904 90 900 q 65 913 78 913 q 46 932 46 913 q 65 950 46 950 l 249 950 q 267 932 267 950 q 249 913 267 913 q 233 908 238 913 q 229 900 229 904 q 232 889 228 894 l 428 532 q 518 696 478 622 q 551 757 535 726 q 581 813 568 788 q 603 854 594 838 q 614 875 613 871 q 619 888 617 882 q 615 900 621 894 q 594 908 610 906 q 549 911 579 911 q 529 931 529 911 q 549 950 529 950 l 700 950 q 719 931 719 950 q 700 911 719 911 q 675 906 685 911 q 658 893 665 900 q 647 875 651 885 l 444 492 l 688 56 q 692 47 688 51 q 711 39 697 39 l 715 39 l 715 39 z "},"Y":{"ha":751,"x_min":46,"x_max":710,"o":"m 690 950 q 710 931 710 950 q 690 911 710 911 q 667 903 678 911 q 649 886 656 896 q 633 863 640 875 l 421 447 l 421 161 q 422 124 421 144 q 425 84 422 103 q 433 53 428 65 q 446 40 438 40 l 447 40 q 465 34 460 40 q 469 20 469 28 q 463 6 469 13 q 447 0 457 0 l 260 0 q 246 6 250 0 q 242 20 242 13 q 247 34 242 28 q 260 40 251 40 l 261 40 q 271 54 267 40 q 278 88 275 68 q 284 128 282 107 q 286 161 286 149 l 286 447 l 93 894 q 89 903 92 899 q 69 911 81 911 l 65 911 q 46 931 46 911 q 65 950 46 950 l 249 950 q 267 931 267 950 q 249 911 267 911 q 229 900 229 911 q 232 889 228 894 l 400 478 l 600 863 q 603 886 607 875 q 585 903 600 896 q 535 911 571 911 q 515 931 515 911 q 535 950 515 950 l 690 950 l 690 950 z "},"Z":{"ha":699,"x_min":3,"x_max":625,"o":"m 606 204 q 619 199 613 204 q 625 185 625 193 l 625 22 q 601 0 625 0 l 29 0 q 13 19 6 0 q 47 83 19 39 l 461 928 l 308 928 q 201 922 250 928 q 116 897 151 915 q 61 848 81 879 q 42 765 42 817 q 22 746 42 746 q 3 765 3 746 l 3 929 q 10 944 4 938 q 28 950 15 950 l 603 950 q 614 933 619 950 q 594 892 608 917 l 160 22 l 318 22 q 426 28 376 22 q 510 52 475 35 q 566 101 546 69 q 586 185 586 133 q 606 204 586 204 z "},"/":{"ha":351,"x_min":0,"x_max":307,"o":"m 260 1006 q 270 1020 263 1015 q 288 1022 278 1025 q 301 1012 296 1019 q 304 994 307 1004 l 47 -46 q 37 -60 44 -54 q 19 -62 29 -65 q 6 -51 11 -60 q 3 -35 0 -43 l 260 1006 z "},":":{"ha":254,"x_min":75,"x_max":221,"o":"m 221 72 q 200 19 221 40 q 149 -1 179 -1 q 96 19 117 -1 q 75 72 75 40 q 96 124 75 103 q 149 144 117 144 q 200 124 179 144 q 221 72 221 103 m 221 342 q 200 290 221 311 q 149 268 179 268 q 96 290 117 268 q 75 342 75 311 q 96 394 75 372 q 149 415 117 415 q 200 394 179 415 q 221 342 221 372 z "},";":{"ha":188,"x_min":1,"x_max":149,"o":"m 75 168 q 127 140 106 168 q 149 72 149 113 q 135 5 149 35 q 105 -47 122 -25 q 71 -83 88 -69 q 46 -101 54 -96 q 26 -103 32 -108 q 22 -94 24 -100 q 28 -85 21 -89 q 49 -67 35 -81 q 72 -35 64 -53 q 77 0 81 -18 q 46 32 74 18 q 12 66 22 43 q 4 112 1 89 q 24 151 7 135 q 75 168 42 168 m 149 343 q 128 291 149 313 q 76 269 107 269 q 24 291 44 269 q 3 343 3 313 q 24 394 3 374 q 76 415 44 415 q 128 394 107 415 q 149 343 149 374 z "},".":{"ha":260,"x_min":47,"x_max":193,"o":"m 193 72 q 172 19 193 40 q 121 -1 151 -1 q 68 19 89 -1 q 47 72 47 40 q 68 124 47 103 q 121 144 89 144 q 172 124 151 144 q 193 72 193 103 z "},",":{"ha":146,"x_min":0,"x_max":147,"o":"m 75 138 q 126 110 106 138 q 147 42 147 82 q 134 -26 147 4 q 103 -78 121 -56 q 69 -113 86 -100 q 46 -132 53 -126 q 25 -133 33 -142 q 22 -126 22 -131 q 26 -117 21 -121 q 48 -97 33 -111 q 71 -67 63 -83 q 76 -32 79 -50 q 46 0 74 -14 q 11 35 22 13 q 3 81 0 58 q 24 121 7 104 q 75 138 42 138 z "},"+":{"ha":442,"x_min":64,"x_max":399,"o":"m 378 429 q 392 423 386 429 q 399 408 399 417 q 392 394 399 400 q 378 389 386 389 l 251 389 l 251 263 q 245 248 251 254 q 231 242 239 242 q 217 248 222 242 q 211 263 211 254 l 211 389 l 85 389 q 70 394 76 389 q 64 408 64 400 q 70 423 64 417 q 85 429 76 429 l 211 429 l 211 556 q 217 570 211 564 q 231 576 222 576 q 245 570 239 576 q 251 556 251 564 l 251 429 l 378 429 l 378 429 z "},"*":{"ha":363,"x_min":3,"x_max":338,"o":"m 317 894 q 331 888 325 894 q 338 874 338 882 q 331 860 338 865 q 317 854 325 854 l 219 854 l 288 785 q 288 756 301 769 q 274 749 282 749 q 260 756 265 749 l 190 825 l 190 728 q 184 713 190 719 q 169 707 178 707 q 156 713 161 707 q 150 728 150 719 l 150 825 l 81 756 q 66 749 74 749 q 51 756 58 749 q 44 770 44 763 q 51 785 44 778 l 121 854 l 24 854 q 9 860 15 854 q 3 874 3 865 q 9 888 3 882 q 24 894 15 894 l 121 894 l 51 964 q 44 978 44 969 q 51 992 44 986 q 81 992 65 1006 l 150 924 l 150 1021 q 156 1035 150 1029 q 169 1042 161 1042 q 184 1035 178 1042 q 190 1021 190 1029 l 190 924 l 260 992 q 274 999 265 999 q 288 992 282 999 q 294 978 294 986 q 288 964 294 969 l 219 894 l 317 894 l 317 894 z "},"(":{"ha":379,"x_min":3,"x_max":336,"o":"m 318 932 q 214 898 249 932 q 165 806 179 864 q 149 669 150 747 q 149 506 149 592 l 149 504 q 149 334 149 418 q 165 183 150 250 q 214 76 179 117 q 318 35 249 35 q 336 17 336 35 q 318 -1 336 -1 q 185 39 243 -1 q 86 148 126 79 q 24 308 46 217 q 3 504 3 400 q 24 694 3 608 q 86 840 46 779 q 185 935 126 901 q 318 968 243 968 q 336 950 336 968 q 318 932 336 932 z "},")":{"ha":368,"x_min":3,"x_max":336,"o":"m 21 36 q 125 70 90 36 q 174 163 160 104 q 190 299 189 221 q 190 463 190 376 l 190 464 q 190 634 190 550 q 174 785 189 718 q 125 892 160 851 q 21 933 90 933 q 3 951 3 933 q 21 969 3 969 q 154 929 96 969 q 253 820 213 889 q 315 660 293 751 q 336 464 336 568 q 315 274 336 360 q 253 128 293 189 q 154 33 213 67 q 21 0 96 0 q 3 18 3 0 q 21 36 3 36 z "},"&":{"ha":958,"x_min":47,"x_max":915,"o":"m 893 40 q 910 34 904 40 q 915 20 915 28 q 909 6 915 13 q 893 0 903 0 l 819 0 q 758 -1 786 0 q 702 6 731 -1 q 643 31 674 13 q 574 89 613 50 q 563 99 568 93 q 550 110 557 103 q 535 125 543 117 q 497 74 519 99 q 448 31 475 50 q 389 1 421 13 q 324 -10 357 -10 q 221 4 271 -10 q 133 48 171 18 q 71 123 94 78 q 47 231 47 168 q 67 315 47 276 q 117 384 88 353 q 180 439 146 415 q 242 478 214 463 q 177 602 201 540 q 153 718 153 664 q 211 889 153 824 q 385 960 269 954 q 541 913 482 960 q 600 764 600 867 q 581 679 600 717 q 531 613 561 642 q 462 560 500 583 q 386 518 424 538 q 476 390 426 453 q 578 271 525 328 q 635 394 599 338 q 721 482 671 450 q 776 508 747 499 q 832 515 806 517 q 878 497 858 513 q 904 451 897 482 q 901 409 910 429 q 872 378 892 389 q 822 370 851 368 q 758 396 793 372 q 710 404 735 410 q 665 378 686 399 q 624 326 643 357 q 592 257 604 294 q 681 170 636 210 q 765 101 725 131 q 838 56 804 72 q 893 40 871 40 m 342 21 q 392 31 367 21 q 440 57 417 40 q 484 95 464 74 q 519 142 504 117 q 463 199 494 165 q 397 272 431 232 q 327 357 363 313 q 261 449 292 401 q 194 360 213 410 q 176 253 176 311 q 188 145 176 189 q 220 74 199 101 q 272 33 242 46 q 342 21 303 21 m 385 935 q 328 924 349 935 q 297 896 307 914 q 283 853 286 878 q 281 801 281 829 q 303 683 281 747 q 367 549 326 618 q 413 587 390 565 q 451 638 435 608 q 478 706 468 668 q 488 794 488 744 q 463 901 488 868 q 385 935 438 935 z "},"$":{"ha":618,"x_min":3,"x_max":569,"o":"m 569 251 q 549 154 569 197 q 492 81 528 111 q 408 33 456 50 q 307 13 361 15 l 307 -53 q 301 -68 307 -62 q 286 -74 294 -74 q 272 -68 278 -74 q 265 -53 265 -62 l 265 13 q 173 28 219 14 q 88 66 126 42 q 26 125 50 90 q 3 206 3 160 q 17 274 3 247 q 53 317 32 301 q 101 335 75 332 q 149 331 126 338 q 184 304 171 324 q 199 260 197 285 q 188 213 200 236 q 144 175 175 189 q 108 137 114 160 q 119 92 103 114 q 173 53 136 69 q 265 33 210 36 l 265 414 q 164 462 211 439 q 82 514 117 485 q 27 583 47 543 q 7 682 7 624 q 26 788 7 739 q 78 873 44 836 q 159 931 111 910 q 265 954 207 953 l 265 1018 q 272 1033 265 1026 q 286 1039 278 1039 q 301 1033 294 1039 q 307 1018 307 1026 l 307 954 q 412 929 365 950 q 491 877 458 908 q 540 808 524 846 q 557 732 557 771 q 546 665 557 692 q 517 624 535 639 q 479 605 500 610 q 440 604 458 600 q 401 626 419 608 q 377 667 383 643 q 379 716 371 690 q 418 764 388 742 q 451 808 443 782 q 446 861 458 835 q 399 908 433 888 q 307 932 365 928 l 307 543 q 498 417 426 490 q 569 251 569 344 m 265 933 q 178 910 213 932 q 128 853 144 888 q 114 778 113 819 q 133 697 115 738 q 183 619 150 656 q 265 560 217 583 l 265 933 m 307 35 q 411 85 379 42 q 440 184 443 128 q 403 299 438 240 q 307 393 368 357 l 307 35 z "},"#":{"ha":374,"x_min":3,"x_max":338,"o":"m 249 199 l 238 133 l 317 133 q 331 127 325 133 q 338 113 338 121 q 331 98 338 104 q 317 92 325 92 l 232 92 l 219 19 q 212 5 218 11 q 196 -1 206 -1 q 183 5 188 -1 q 179 19 178 11 l 190 92 l 125 92 l 114 19 q 106 5 113 11 q 90 -1 99 -1 q 76 5 82 -1 q 74 19 71 11 l 85 92 l 24 92 q 9 98 15 92 q 3 113 3 104 q 9 127 3 121 q 24 133 15 133 l 92 133 l 101 199 l 24 199 q 9 204 15 199 q 3 219 3 210 q 9 233 3 228 q 24 239 15 239 l 108 239 l 119 313 q 128 327 121 321 q 143 333 135 333 q 157 327 151 333 q 160 313 163 321 l 149 239 l 214 239 l 226 313 q 235 327 228 321 q 250 333 242 333 q 263 327 258 333 q 267 313 268 321 l 256 239 l 317 239 q 331 233 325 239 q 338 219 338 228 q 331 204 338 210 q 317 199 325 199 l 249 199 m 208 199 l 142 199 l 132 133 l 197 133 l 208 199 z "},"\"":{"ha":115,"x_min":1,"x_max":118,"o":"m 60 951 q 102 928 86 951 q 118 874 118 906 q 106 816 118 840 q 77 775 93 792 q 45 748 61 758 q 24 733 29 738 q 6 732 14 726 q 2 740 3 735 q 7 747 1 744 q 31 763 13 751 q 62 788 49 774 q 74 819 75 803 q 42 849 72 835 q 11 876 21 858 q 3 910 1 893 q 19 939 6 926 q 60 951 33 951 z "},"!":{"ha":204,"x_min":3,"x_max":149,"o":"m 149 72 q 128 19 149 40 q 76 -1 107 -1 q 24 19 44 -1 q 3 72 3 40 q 24 124 3 103 q 76 144 44 144 q 128 124 107 144 q 149 72 149 103 m 76 1019 q 128 999 107 1019 q 149 947 149 978 q 147 915 149 946 q 141 835 144 885 q 133 723 138 786 q 125 594 129 660 q 101 244 114 440 q 94 226 101 233 q 76 218 88 218 q 50 244 50 218 q 26 594 36 440 q 17 723 22 660 q 10 835 13 786 q 5 915 7 885 q 3 947 3 946 q 24 999 3 978 q 76 1019 44 1019 z "},"?":{"ha":601,"x_min":3,"x_max":556,"o":"m 265 1021 q 380 1005 326 1021 q 472 957 433 989 q 533 878 511 925 q 556 767 556 831 q 538 635 556 686 q 492 551 519 585 q 431 492 464 517 q 369 438 399 467 q 331 379 344 413 q 311 315 318 346 q 304 244 304 279 q 297 226 304 233 q 278 218 289 218 q 259 226 267 218 q 251 244 251 233 l 249 315 q 261 422 249 376 q 293 503 274 467 q 335 568 313 539 q 376 627 357 597 q 408 690 396 657 q 421 765 421 722 q 418 852 421 810 q 401 927 415 894 q 355 980 386 960 q 265 1000 324 1000 q 160 977 200 1000 q 107 922 121 954 q 106 858 93 890 q 158 807 118 825 q 209 760 199 788 q 211 708 219 733 q 179 662 203 682 q 129 638 156 642 q 37 663 71 626 q 3 779 3 699 q 26 885 3 839 q 86 960 49 931 q 171 1006 124 990 q 265 1021 218 1021 m 278 144 q 330 124 308 144 q 351 72 351 103 q 330 19 351 40 q 278 -1 308 -1 q 226 19 247 -1 q 206 72 206 40 q 226 124 206 103 q 278 144 247 144 z "},"@":{"ha":942,"x_min":3,"x_max":897,"o":"m 535 588 q 535 641 535 614 q 531 690 535 668 q 515 725 526 711 q 478 739 503 739 q 415 730 442 739 q 375 705 389 721 q 363 668 361 689 q 383 624 364 647 q 399 566 408 594 q 356 531 390 538 q 301 545 321 524 q 281 599 281 567 q 291 649 281 622 q 325 700 301 676 q 386 740 349 724 q 478 756 424 756 q 605 715 565 756 q 644 586 644 674 l 646 294 q 681 239 646 247 q 757 259 715 231 q 833 352 799 288 q 868 515 868 417 q 838 670 868 600 q 753 791 807 740 q 627 870 700 842 q 469 899 554 899 q 335 876 400 899 q 219 804 269 854 q 138 673 168 754 q 107 472 107 592 q 135 300 107 379 q 213 163 163 221 q 336 72 264 104 q 499 39 408 39 q 632 62 579 39 q 719 107 685 85 q 733 108 726 110 q 743 101 740 107 q 738 79 750 89 q 692 52 718 67 q 634 26 665 38 q 569 6 603 14 q 499 -1 535 -1 q 272 41 367 -1 q 118 151 178 83 q 31 303 58 218 q 3 472 3 388 q 44 679 3 593 q 153 820 86 765 q 304 901 221 875 q 471 926 388 926 q 640 894 563 926 q 776 808 718 863 q 865 678 833 753 q 897 515 897 603 q 874 368 897 429 q 815 267 851 307 q 736 210 779 228 q 653 192 693 192 q 583 209 614 192 q 540 260 551 226 q 528 251 535 256 q 519 244 522 247 q 478 218 504 232 q 404 204 451 204 q 348 214 375 204 q 300 242 321 224 q 267 286 279 260 q 254 347 254 313 q 273 430 254 399 q 323 479 292 461 q 395 503 354 497 q 479 510 436 510 q 512 508 497 510 q 535 506 526 507 l 535 588 m 536 279 q 535 294 535 285 l 535 479 q 479 493 519 493 q 394 458 424 493 q 364 347 364 422 q 386 260 364 289 q 446 232 408 232 q 494 248 469 232 q 536 279 519 264 z "},"":{"ha":624,"x_min":3,"x_max":571,"o":"m 549 39 q 565 33 560 39 q 571 19 571 26 q 565 5 571 11 q 549 -1 558 -1 l 360 -1 q 343 5 349 -1 q 338 19 338 11 q 343 33 338 26 q 360 39 349 39 q 383 65 376 39 q 390 121 390 92 l 392 121 l 392 515 q 385 583 392 564 q 360 603 378 603 l 244 603 l 244 157 q 244 119 244 140 q 247 81 244 99 q 255 51 250 64 q 271 39 260 39 q 288 33 282 39 q 293 19 293 26 q 287 5 293 11 q 271 -1 281 -1 l 82 -1 q 65 5 71 -1 q 60 19 60 11 q 65 33 60 26 q 82 39 71 39 q 99 51 93 39 q 107 81 104 64 q 110 119 110 99 q 110 157 110 140 l 110 603 l 24 603 q 8 609 14 603 q 3 624 3 615 q 9 638 3 632 q 24 643 15 643 l 60 643 q 97 660 83 644 q 110 692 110 676 q 127 838 110 781 q 174 930 144 896 q 242 977 203 964 q 328 990 282 990 q 399 975 365 990 q 457 933 432 960 q 497 871 482 907 q 511 792 511 835 q 492 737 511 760 q 439 713 474 714 q 410 718 426 713 q 383 735 394 724 q 367 765 371 747 q 376 807 364 783 q 403 865 392 836 q 413 919 414 894 q 392 958 411 943 q 328 974 372 974 q 285 962 301 974 q 259 934 268 950 q 247 901 250 918 q 244 874 244 883 l 244 692 q 259 654 247 664 q 293 643 271 644 l 351 643 q 355 644 353 643 q 360 644 357 644 q 431 649 413 644 q 458 658 450 654 q 482 669 471 664 q 501 674 493 674 q 514 667 510 674 q 518 643 518 660 l 518 115 q 526 63 518 88 q 549 39 533 39 z "},"":{"ha":618,"x_min":3,"x_max":572,"o":"m 550 39 q 567 33 563 39 q 572 19 572 26 q 566 5 572 11 q 550 -1 560 -1 l 363 -1 q 346 5 351 -1 q 340 19 340 11 q 345 33 340 26 q 363 39 350 39 q 379 53 374 39 q 387 86 385 67 q 389 127 389 106 q 389 164 389 149 l 389 182 l 388 182 l 388 603 l 244 603 l 244 157 q 244 119 244 140 q 247 81 244 99 q 255 51 250 64 q 271 39 260 39 q 288 33 282 39 q 293 19 293 26 q 287 5 293 11 q 271 -1 281 -1 l 82 -1 q 65 5 71 -1 q 60 19 60 11 q 65 33 60 26 q 82 39 71 39 q 99 51 93 39 q 107 81 104 64 q 110 119 110 99 q 110 157 110 140 l 110 603 l 24 603 q 9 608 15 603 q 3 624 3 614 q 9 638 3 632 q 24 643 15 643 l 60 643 q 110 692 110 646 q 123 831 110 774 q 161 923 136 888 q 222 974 186 958 q 303 990 257 990 q 358 980 336 990 q 394 953 379 969 q 406 958 400 957 q 455 977 433 969 q 483 988 476 985 q 515 996 508 996 q 522 964 522 996 l 522 201 l 524 201 l 524 164 q 524 127 524 149 q 526 86 524 106 q 533 53 528 67 q 550 39 539 39 m 388 857 q 385 883 388 865 q 374 920 383 901 q 349 953 365 939 q 303 967 332 967 q 270 956 282 967 q 253 931 258 946 q 246 899 247 915 q 244 874 244 883 l 244 692 q 259 654 247 664 q 293 643 271 644 l 388 643 l 388 857 z "},"":{"ha":601,"x_min":3,"x_max":556,"o":"m 429 368 q 522 343 488 379 q 556 226 556 307 q 533 120 556 165 q 472 45 510 75 q 388 0 435 15 q 293 -15 340 -15 q 194 1 244 -15 q 100 49 143 17 q 30 128 57 81 q 3 239 3 175 q 21 353 3 304 q 67 440 39 401 q 127 508 94 478 q 189 568 160 539 q 226 626 214 593 q 246 689 239 658 q 254 761 253 725 q 262 780 254 772 q 281 788 269 788 q 299 780 292 788 q 307 761 307 772 l 310 690 q 297 584 310 629 q 265 503 285 539 q 224 438 246 467 q 182 378 201 408 q 150 316 163 349 q 138 240 138 283 q 147 153 138 196 q 174 78 156 111 q 223 26 193 46 q 293 6 253 6 q 398 28 358 6 q 451 83 438 51 q 453 147 465 115 q 400 199 440 179 q 349 245 360 218 q 347 298 339 272 q 378 344 356 324 q 429 368 401 364 m 281 861 q 228 882 250 861 q 207 933 207 903 q 228 985 207 964 q 281 1007 250 1007 q 332 985 311 1007 q 353 933 353 964 q 332 882 353 903 q 281 861 311 861 z "},"":{"ha":708,"x_min":3,"x_max":678,"o":"m 508 911 q 582 899 547 911 q 640 865 617 888 q 670 809 663 842 q 664 735 678 776 q 625 679 653 703 q 565 656 597 656 q 533 665 544 656 q 517 688 521 674 q 517 718 513 701 q 535 750 521 735 q 576 851 583 808 q 503 894 568 894 q 467 885 482 894 q 440 860 451 875 q 421 827 428 844 q 410 796 414 810 q 398 749 406 781 q 379 674 390 718 q 355 578 368 631 q 325 469 342 525 l 417 469 q 431 463 425 469 q 438 449 438 457 q 431 435 438 440 q 417 429 425 429 l 313 429 q 272 305 293 367 q 229 190 251 243 q 183 96 207 136 q 136 36 160 56 q 156 28 139 32 q 201 23 171 25 q 285 21 231 21 q 388 27 339 21 q 474 51 438 33 q 531 100 510 68 q 553 183 553 132 q 572 203 553 203 q 585 197 579 203 q 592 183 592 192 l 592 21 q 568 -1 592 -1 l 22 -1 q 3 18 3 -1 q 22 38 3 38 q 31 40 22 39 q 52 44 40 40 q 74 56 64 47 q 89 79 85 64 q 103 143 94 104 q 123 229 113 182 q 145 328 133 276 q 168 429 157 379 l 121 429 q 106 435 113 429 q 100 449 100 440 q 106 463 100 457 q 121 469 113 469 l 178 469 q 196 547 188 510 q 211 613 204 585 q 253 725 226 671 q 318 821 281 779 q 403 887 356 863 q 508 911 451 911 z "},"":{"ha":681,"x_min":3,"x_max":626,"o":"m 186 950 q 372 925 290 950 q 510 844 454 900 q 597 697 567 788 q 626 476 626 607 q 588 263 626 353 q 488 114 550 172 q 347 27 426 56 q 186 -1 268 -1 l 25 -1 q 8 5 14 -1 q 3 19 3 11 q 8 33 3 26 q 25 39 14 39 q 41 57 36 39 q 49 99 46 75 q 51 160 51 125 l 51 822 q 47 881 51 853 q 25 910 42 910 q 8 916 14 910 q 3 930 3 922 q 8 944 3 938 q 25 950 14 950 l 186 950 m 186 21 q 313 43 261 21 q 399 102 365 65 q 451 187 433 139 q 478 285 469 235 q 488 385 486 336 q 489 476 489 435 q 488 578 489 525 q 477 681 486 631 q 450 775 468 731 q 398 853 432 819 q 313 907 364 888 q 186 926 261 926 l 186 486 l 257 486 q 290 488 268 486 q 333 497 311 489 q 370 524 354 506 q 386 579 386 543 q 392 594 386 588 q 407 600 399 600 q 421 594 415 600 q 426 579 426 588 l 426 368 q 407 349 426 349 q 392 354 399 349 q 386 368 386 360 q 370 424 386 404 q 333 452 354 443 q 290 463 311 461 q 257 464 268 464 l 186 464 l 186 21 z "},"":{"ha":825,"x_min":46,"x_max":790,"o":"m 771 949 q 784 943 778 949 q 790 929 790 938 q 784 915 790 921 q 771 910 778 910 q 735 903 749 910 q 713 888 721 897 q 703 867 706 879 q 700 844 700 856 l 700 13 q 686 -1 700 -1 q 676 4 682 -1 q 672 11 674 7 l 163 778 l 163 103 q 165 80 163 92 q 176 58 168 68 q 197 43 183 49 q 233 38 211 38 q 247 31 240 38 q 253 17 253 25 q 247 4 253 10 q 233 -1 240 -1 l 65 -1 q 46 18 46 -1 q 65 38 46 38 q 122 59 108 38 q 135 103 135 81 l 135 826 q 132 849 135 835 q 123 876 129 863 q 106 900 117 890 q 78 910 96 910 q 65 915 71 910 q 58 929 58 921 q 65 942 58 936 q 78 949 71 949 l 196 949 q 229 942 215 949 q 251 929 243 936 q 268 910 261 921 l 672 299 l 672 844 q 659 888 672 867 q 603 910 646 910 q 589 916 594 910 q 583 929 583 922 q 603 949 583 949 l 771 949 m 250 1015 q 245 1020 246 1017 q 244 1025 244 1024 q 250 1066 244 1044 q 267 1106 256 1088 q 296 1135 279 1124 q 336 1147 313 1147 q 376 1138 354 1147 q 422 1116 399 1128 q 465 1094 444 1104 q 500 1085 485 1085 q 542 1102 531 1085 q 568 1144 553 1119 q 574 1152 571 1147 q 583 1156 576 1157 q 588 1149 588 1153 q 589 1144 589 1146 q 583 1103 589 1125 q 566 1064 578 1082 q 537 1035 554 1046 q 497 1024 519 1024 q 459 1033 481 1024 q 415 1055 438 1043 q 372 1076 393 1067 q 333 1086 350 1086 q 292 1069 303 1086 q 265 1025 281 1051 q 260 1017 263 1022 q 250 1015 257 1013 z "},"":{"ha":539,"x_min":3,"x_max":485,"o":"m 347 361 q 448 284 411 329 q 485 183 485 239 q 462 94 485 129 q 404 37 439 58 q 327 7 369 15 q 247 -1 285 -1 q 170 8 213 -1 q 90 38 128 18 q 28 89 53 58 q 3 160 3 119 q 13 209 3 188 q 40 244 24 231 q 77 261 57 258 q 118 254 97 264 q 147 230 139 244 q 156 199 156 215 q 147 167 156 183 q 125 138 139 151 q 109 96 104 117 q 134 58 114 75 q 185 31 154 42 q 247 21 215 21 q 334 51 301 21 q 373 120 367 81 q 357 199 379 160 q 279 256 335 238 q 207 279 249 265 q 126 315 165 293 q 59 366 88 336 q 25 440 31 396 l 25 457 q 44 549 25 513 q 93 610 64 586 q 164 644 125 633 q 113 672 138 657 q 68 706 88 686 q 37 749 49 725 q 25 804 25 774 q 47 903 25 864 q 103 965 69 942 q 175 996 136 988 q 247 1004 214 1004 q 332 994 290 1004 q 407 965 374 985 q 461 915 440 944 q 482 849 482 886 q 473 794 482 815 q 449 760 464 772 q 417 746 435 749 q 385 750 400 743 q 342 800 349 764 q 371 869 335 836 q 394 910 393 890 q 380 947 396 931 q 330 974 364 964 q 247 985 296 985 q 144 953 176 985 q 110 883 111 922 q 138 806 110 843 q 215 757 165 769 q 325 720 275 742 q 410 670 375 699 q 465 607 446 642 q 485 532 485 572 q 485 515 485 524 q 482 499 485 507 q 461 440 476 465 q 424 399 446 415 q 388 376 407 385 q 347 361 368 368 m 199 631 q 159 617 175 626 q 132 594 143 607 q 110 540 113 571 q 122 482 108 510 q 157 437 133 457 q 215 408 181 417 q 303 381 260 399 q 354 424 333 394 q 369 519 385 468 q 339 569 361 547 q 279 604 317 592 q 242 617 263 611 q 199 631 221 624 z "},"":{"ha":533,"x_min":3,"x_max":492,"o":"m 481 222 q 492 211 492 222 q 477 142 492 179 q 435 72 463 104 q 369 18 408 40 q 278 -6 329 -4 l 229 -54 q 333 -89 299 -54 q 368 -172 368 -124 q 326 -266 368 -233 q 226 -299 283 -299 q 158 -274 189 -299 q 126 -217 126 -250 q 138 -175 126 -192 q 174 -158 150 -158 q 204 -180 197 -158 q 192 -219 211 -201 q 174 -245 175 -233 q 180 -266 172 -257 q 201 -280 188 -275 q 226 -285 214 -285 q 279 -255 265 -285 q 293 -172 293 -225 q 259 -105 293 -122 q 181 -112 225 -87 q 165 -106 172 -115 q 172 -82 158 -97 l 250 -6 q 61 87 119 1 q 3 328 3 172 q 24 453 3 396 q 82 551 46 511 q 166 615 118 592 q 268 638 214 638 q 367 622 325 638 q 436 582 408 607 q 478 525 464 557 q 492 460 492 493 q 474 397 492 422 q 414 371 457 371 q 384 377 400 371 q 358 398 368 383 q 346 436 347 413 q 361 496 344 460 q 372 537 369 515 q 367 577 375 558 q 335 608 358 596 q 268 619 311 619 q 192 590 218 619 q 156 515 167 560 q 145 416 146 469 q 144 317 144 363 q 145 226 144 275 q 156 133 146 176 q 192 60 167 89 q 268 31 218 31 q 359 49 321 31 q 422 94 397 67 q 458 153 446 121 q 469 211 469 185 q 481 222 469 222 z "},"":{"ha":725,"x_min":3,"x_max":672,"o":"m 644 310 q 653 306 649 310 q 657 289 657 301 q 644 199 657 249 q 603 104 632 149 q 525 29 574 60 q 403 -1 476 -1 q 285 24 338 -1 q 192 97 232 50 q 128 212 153 144 q 93 363 103 279 l 24 363 q 9 368 15 363 q 3 382 3 374 q 9 397 3 390 q 24 403 15 403 l 90 403 q 88 432 89 418 q 88 461 88 446 q 88 479 88 471 q 89 496 89 488 l 24 496 q 9 501 15 496 q 3 515 3 507 q 9 530 3 524 q 24 536 15 536 l 90 536 q 118 700 96 625 q 178 829 140 775 q 272 914 217 883 q 399 944 326 944 q 526 923 474 944 q 611 867 579 901 q 658 790 643 832 q 672 710 672 749 q 666 652 672 678 q 647 610 660 626 q 615 588 635 593 q 568 589 596 582 q 537 606 551 593 q 517 638 522 619 q 518 681 511 657 q 550 729 525 704 q 588 799 585 764 q 569 861 592 833 q 503 907 547 889 q 399 925 460 925 q 313 890 344 925 q 264 799 281 854 q 242 674 247 743 q 235 536 236 604 l 426 536 q 441 530 435 536 q 447 515 447 524 q 441 501 447 507 q 426 496 435 496 l 233 496 l 233 403 l 426 403 q 441 397 435 403 q 447 382 447 390 q 441 368 447 374 q 426 363 435 363 l 233 363 q 238 233 233 293 q 259 129 242 174 q 310 60 276 85 q 403 35 344 35 q 520 65 475 35 q 589 138 565 96 q 621 222 613 179 q 629 289 629 265 q 633 303 629 297 q 644 310 638 310 z "},"":{"ha":329,"x_min":3,"x_max":283,"o":"m 243 849 q 210 819 211 835 q 223 788 210 803 q 253 763 236 774 q 278 747 271 751 q 282 740 283 744 q 279 732 281 735 q 261 733 271 726 q 239 748 254 738 q 208 775 224 758 q 179 816 192 792 q 167 874 167 840 q 183 928 167 906 q 225 951 199 951 q 265 939 251 951 q 281 910 279 926 q 274 876 283 893 q 243 849 264 858 m 79 849 q 47 819 47 835 q 59 788 46 803 q 90 763 72 774 q 114 747 107 751 q 119 740 119 744 q 115 732 118 735 q 97 733 107 726 q 75 748 90 738 q 44 775 60 758 q 15 816 28 792 q 3 874 3 840 q 19 928 3 906 q 63 951 35 951 q 101 939 88 951 q 117 910 115 926 q 110 876 119 893 q 79 849 100 858 z "},"":{"ha":306,"x_min":1,"x_max":282,"o":"m 60 951 q 102 928 86 951 q 118 874 118 906 q 106 816 118 840 q 77 775 93 792 q 45 748 61 758 q 24 733 29 738 q 6 732 14 726 q 2 740 3 735 q 7 747 1 744 q 31 763 13 751 q 62 788 49 774 q 74 819 75 803 q 42 849 72 835 q 11 876 21 858 q 3 910 1 893 q 19 939 6 926 q 60 951 33 951 m 222 951 q 266 928 250 951 q 282 874 282 906 q 269 816 282 840 q 241 775 257 792 q 209 748 225 758 q 186 733 193 738 q 169 732 175 726 q 166 740 167 735 q 171 747 165 744 q 194 763 176 751 q 225 788 213 774 q 236 819 238 803 q 204 849 235 835 q 174 876 183 858 q 167 910 165 893 q 183 939 169 926 q 222 951 197 951 z "},"":{"ha":636,"x_min":46,"x_max":589,"o":"m 257 39 q 274 33 268 39 q 279 19 279 26 q 273 5 279 11 q 257 -1 267 -1 l 68 -1 q 51 5 57 -1 q 46 19 46 11 q 51 33 46 26 q 68 39 57 39 q 81 47 76 39 q 90 69 86 56 q 94 99 93 82 q 94 131 94 115 l 94 510 q 90 525 94 518 q 81 538 86 532 q 68 547 75 543 q 50 560 56 553 q 48 574 46 567 q 67 589 50 581 q 108 608 88 599 q 145 623 128 617 q 175 633 163 629 q 192 639 188 638 q 222 647 215 647 q 229 615 229 647 l 229 553 q 252 583 238 565 q 290 617 267 600 q 344 645 313 633 q 417 657 376 657 q 483 644 458 657 q 520 610 507 631 q 537 563 533 589 q 540 513 540 538 l 540 131 q 541 99 540 115 q 544 69 542 82 q 553 47 547 56 q 567 39 558 39 q 583 33 578 39 q 589 19 589 26 q 583 5 589 11 q 567 -1 576 -1 l 389 -1 q 372 5 378 -1 q 367 19 367 11 q 372 33 367 26 q 389 39 378 39 q 403 47 397 39 q 412 69 408 56 q 416 99 415 82 q 417 131 417 115 l 417 513 q 415 544 417 529 q 408 572 414 560 q 390 591 403 583 q 354 599 376 599 q 307 590 328 599 q 271 568 286 581 q 245 542 256 556 q 229 517 235 528 l 229 131 q 230 99 229 115 q 234 69 231 82 q 243 47 238 56 q 257 39 249 39 m 469 828 q 474 823 474 826 q 475 818 475 819 q 469 777 475 799 q 452 738 464 756 q 424 708 440 719 q 385 697 407 697 q 347 707 367 697 q 308 728 328 717 q 270 749 289 739 q 235 758 251 758 q 192 742 204 758 q 165 699 181 725 q 160 691 163 696 q 150 689 157 686 q 146 694 147 690 q 144 699 144 697 q 150 740 144 718 q 167 778 156 761 q 196 808 179 796 q 236 819 213 819 q 275 810 254 819 q 315 789 296 800 q 353 768 335 778 q 386 758 371 758 q 428 776 417 758 q 456 818 440 793 q 461 826 458 821 q 469 828 464 831 z "},"":{"ha":681,"x_min":3,"x_max":626,"o":"m 186 950 q 372 925 290 950 q 510 844 454 900 q 597 697 567 788 q 626 476 626 607 q 588 263 626 353 q 488 114 550 172 q 347 27 426 56 q 186 -1 268 -1 l 25 -1 q 8 5 14 -1 q 3 19 3 11 q 8 33 3 26 q 25 39 14 39 q 41 57 36 39 q 49 99 46 75 q 51 160 51 125 l 51 822 q 47 881 51 853 q 25 910 42 910 q 8 916 14 910 q 3 930 3 922 q 8 944 3 938 q 25 950 14 950 l 186 950 m 186 21 q 313 43 261 21 q 399 102 365 65 q 451 187 433 139 q 478 285 469 235 q 488 385 486 336 q 489 476 489 435 q 488 578 489 525 q 477 681 486 631 q 450 775 468 731 q 398 853 432 819 q 313 907 364 888 q 186 926 261 926 l 186 486 l 257 486 q 290 488 268 486 q 333 497 311 489 q 372 525 356 506 q 388 581 388 544 q 393 594 388 588 q 407 600 399 600 q 421 594 415 600 q 426 581 426 588 l 426 368 q 407 349 426 349 q 388 368 388 349 q 372 424 388 404 q 333 452 356 443 q 290 463 311 461 q 257 464 268 464 l 186 464 l 186 21 z "},"":{"ha":592,"x_min":8,"x_max":556,"o":"m 243 57 q 294 67 272 57 q 331 91 315 76 q 357 120 347 106 q 372 146 367 135 l 372 517 q 368 532 372 525 q 358 544 364 539 q 346 554 353 550 q 328 567 333 560 q 326 581 324 574 q 344 596 328 588 q 423 631 386 615 q 469 650 460 647 q 500 654 493 658 q 507 626 507 650 l 507 150 q 511 99 507 121 q 519 63 514 79 q 533 47 524 47 q 550 41 544 47 q 556 26 556 35 q 549 12 556 18 q 533 6 543 6 l 396 6 q 380 12 386 6 q 372 26 374 18 l 372 110 q 352 81 367 100 q 314 44 338 63 q 257 13 290 26 q 181 -1 224 -1 q 115 12 139 -1 q 77 46 90 25 q 60 93 64 67 q 57 144 57 119 l 57 517 q 53 532 57 525 q 43 544 49 539 q 31 554 38 550 q 13 567 18 560 q 10 581 8 574 q 29 596 13 588 q 70 615 50 606 q 108 631 90 624 q 138 644 125 639 q 154 650 150 649 q 177 651 174 658 q 181 626 181 644 l 181 144 q 182 112 181 128 q 189 84 183 96 q 207 65 194 72 q 243 57 219 57 m 397 844 q 347 802 381 821 q 279 771 314 783 q 216 751 244 758 q 179 743 188 744 q 163 749 163 740 q 175 763 161 754 q 194 773 182 765 q 224 796 207 781 q 262 837 240 811 q 308 903 283 863 q 342 926 321 922 q 382 919 363 931 q 406 887 401 908 q 399 846 410 865 l 397 844 z "},"":{"ha":579,"x_min":32,"x_max":553,"o":"m 529 47 q 547 41 542 47 q 552 26 553 35 q 546 12 551 18 q 529 6 540 6 l 390 6 q 374 12 381 6 q 367 26 368 18 l 367 54 q 305 14 340 29 q 211 -1 269 -1 q 149 9 181 -1 q 91 41 117 19 q 49 94 65 63 q 32 169 32 126 q 55 256 32 219 q 116 316 78 292 q 203 351 154 340 q 301 363 251 363 q 339 361 322 363 q 367 357 356 360 l 367 456 q 367 519 367 488 q 362 578 367 551 q 343 620 357 604 q 300 636 329 636 q 242 628 271 636 q 197 603 214 619 q 177 565 179 588 q 199 515 175 543 q 222 471 218 493 q 217 431 225 449 q 192 401 210 413 q 154 388 175 389 q 88 408 111 385 q 64 469 64 432 q 76 530 64 497 q 117 590 89 563 q 190 637 144 618 q 300 656 235 656 q 451 607 404 656 q 497 454 497 558 l 499 146 q 500 112 499 129 q 505 80 501 94 q 515 56 508 65 q 529 47 521 47 m 261 32 q 324 49 297 32 q 367 82 350 65 l 367 329 q 342 339 358 335 q 301 343 326 343 q 198 296 232 343 q 164 169 164 249 q 190 65 164 99 q 261 32 215 32 m 419 844 q 369 802 403 821 q 301 771 336 783 q 238 751 267 758 q 201 743 210 744 q 185 749 185 740 q 197 763 183 754 q 217 773 204 765 q 246 796 229 781 q 284 837 263 811 q 331 903 306 863 q 364 926 343 922 q 404 919 385 931 q 428 887 424 908 q 421 846 432 865 l 419 844 z "},"":{"ha":550,"x_min":32,"x_max":510,"o":"m 32 322 q 59 496 32 431 q 124 595 86 561 q 202 640 161 629 q 271 650 243 650 q 340 640 299 650 q 418 595 381 629 q 483 497 456 561 q 510 325 510 433 l 510 322 q 483 151 510 215 q 418 53 456 88 q 340 9 381 19 q 271 -1 299 -1 q 202 9 243 -1 q 124 53 161 19 q 59 151 86 88 q 32 322 32 215 m 167 325 q 169 213 167 268 q 181 113 171 157 q 213 43 192 69 q 271 17 233 17 q 329 43 308 17 q 360 113 350 69 q 373 211 371 157 q 375 322 375 265 l 375 325 q 373 437 375 382 q 360 535 371 492 q 329 606 350 579 q 271 632 308 632 q 213 606 233 632 q 181 535 192 579 q 169 437 171 492 q 167 325 167 382 m 419 844 q 369 802 403 821 q 301 771 336 783 q 238 751 267 758 q 201 743 210 744 q 185 749 185 740 q 197 763 183 754 q 217 773 204 765 q 246 796 229 781 q 284 837 263 811 q 331 903 306 863 q 364 926 343 922 q 404 919 385 931 q 428 887 424 908 q 421 846 432 865 l 419 844 z "},"":{"ha":318,"x_min":39,"x_max":289,"o":"m 257 39 q 274 33 268 39 q 279 19 279 26 q 273 5 279 11 q 257 -1 267 -1 l 68 -1 q 51 5 57 -1 q 46 19 46 11 q 51 33 46 26 q 68 39 57 39 q 92 65 85 39 q 100 121 99 92 l 100 515 q 95 530 100 524 q 83 542 90 536 q 68 553 76 547 q 51 565 57 558 q 49 579 47 572 q 68 594 50 586 q 146 628 108 614 q 192 644 183 642 q 211 651 204 649 q 222 651 218 653 q 226 643 225 650 q 226 619 226 636 l 226 115 q 235 63 228 88 q 257 39 242 39 m 278 846 q 276 845 276 846 q 275 844 276 844 q 226 802 258 821 q 158 771 193 783 q 94 751 122 758 q 57 743 65 744 q 40 749 43 742 q 54 763 39 754 q 74 773 61 765 q 103 796 86 781 q 141 837 119 811 q 188 903 163 863 q 219 926 199 922 q 260 919 240 931 q 284 887 279 908 q 278 846 289 865 z "},"":{"ha":592,"x_min":13,"x_max":560,"o":"m 247 57 q 298 67 276 57 q 335 91 319 76 q 361 120 351 106 q 376 146 371 135 l 376 517 q 372 532 376 525 q 363 544 368 539 q 350 554 357 550 q 332 567 338 560 q 330 581 328 574 q 349 596 332 588 q 427 631 390 615 q 474 650 464 647 q 504 654 497 658 q 511 626 511 650 l 511 150 q 515 99 511 121 q 523 63 518 79 q 538 47 528 47 q 554 41 549 47 q 560 26 560 35 q 553 12 560 18 q 538 6 547 6 l 400 6 q 384 12 390 6 q 376 26 378 18 l 376 110 q 356 81 371 100 q 318 44 342 63 q 261 13 294 26 q 185 -1 228 -1 q 119 12 143 -1 q 81 46 94 25 q 65 93 68 67 q 61 144 61 119 l 61 517 q 57 532 61 525 q 47 544 53 539 q 35 554 42 550 q 17 567 22 560 q 15 581 13 574 q 33 596 17 588 q 74 615 54 606 q 112 631 94 624 q 142 644 129 639 q 158 650 154 649 q 181 651 178 658 q 185 626 185 644 l 185 144 q 186 112 185 128 q 193 84 188 96 q 211 65 199 72 q 247 57 224 57 m 175 846 q 167 887 163 865 q 192 919 172 908 q 232 926 211 931 q 264 903 253 922 q 310 837 289 863 q 349 796 332 811 q 378 773 365 781 q 397 763 390 765 q 411 749 413 754 q 394 743 408 742 q 358 751 386 744 q 294 771 329 758 q 226 802 258 783 q 176 844 193 821 q 175 846 175 844 z "},"":{"ha":564,"x_min":3,"x_max":524,"o":"m 500 39 q 518 33 513 39 q 523 18 524 26 q 517 3 522 10 q 500 -3 511 -3 l 361 -3 q 345 3 351 -3 q 338 18 339 10 l 338 46 q 276 6 311 21 q 182 -10 240 -10 q 119 1 151 -10 q 62 33 88 11 q 19 86 36 54 q 3 161 3 118 q 26 247 3 211 q 87 308 49 283 q 174 343 125 332 q 272 354 222 354 q 310 353 293 354 q 338 349 326 351 l 338 447 q 338 511 338 479 q 333 569 338 543 q 314 612 328 596 q 271 628 300 628 q 213 619 242 628 q 167 595 185 611 q 148 557 150 579 q 169 507 146 535 q 192 463 189 485 q 188 422 196 440 q 163 392 181 404 q 125 379 146 381 q 58 400 82 376 q 35 461 35 424 q 47 522 35 489 q 88 582 60 554 q 160 628 115 610 q 271 647 206 647 q 422 599 375 647 q 468 446 468 550 l 469 138 q 471 103 469 121 q 476 72 472 86 q 485 48 479 57 q 500 39 492 39 m 232 24 q 294 40 268 24 q 338 74 321 57 l 338 321 q 313 331 329 326 q 272 335 297 335 q 169 288 203 335 q 135 161 135 240 q 160 57 135 90 q 232 24 186 24 m 164 838 q 156 878 151 857 q 181 911 161 900 q 221 918 200 922 q 253 894 242 914 q 299 828 278 854 q 338 788 321 803 q 367 765 354 772 q 386 754 379 757 q 400 740 401 746 q 383 735 397 733 q 347 743 375 736 q 283 763 318 750 q 215 794 247 775 q 165 836 182 813 q 164 838 164 836 z "},"":{"ha":550,"x_min":35,"x_max":513,"o":"m 35 322 q 62 496 35 431 q 126 595 89 561 q 205 640 164 629 q 274 650 246 650 q 342 640 301 650 q 421 595 383 629 q 485 497 458 561 q 513 325 513 433 l 513 322 q 485 151 513 215 q 421 53 458 88 q 342 9 383 19 q 274 -1 301 -1 q 205 9 246 -1 q 126 53 164 19 q 62 151 89 88 q 35 322 35 215 m 169 325 q 172 213 169 268 q 184 113 174 157 q 215 43 194 69 q 274 17 236 17 q 332 43 311 17 q 363 113 353 69 q 376 211 374 157 q 378 322 378 265 l 378 325 q 376 437 378 382 q 363 535 374 492 q 332 606 353 579 q 274 632 311 632 q 215 606 236 632 q 184 535 194 579 q 172 437 174 492 q 169 325 169 382 m 160 846 q 152 887 147 865 q 176 919 157 908 q 217 926 196 931 q 250 903 238 922 q 296 837 275 863 q 333 796 317 811 q 363 773 350 781 q 382 763 375 765 q 396 749 397 754 q 379 743 396 740 q 342 751 371 744 q 279 771 314 758 q 211 802 244 783 q 161 844 178 821 q 160 846 160 844 z "},"":{"ha":318,"x_min":33,"x_max":282,"o":"m 253 40 q 269 34 264 40 q 275 20 275 28 q 269 6 275 13 q 253 0 263 0 l 64 0 q 47 6 53 0 q 42 20 42 13 q 47 34 42 28 q 64 40 53 40 q 88 67 81 40 q 96 122 94 93 l 96 517 q 91 531 96 525 q 79 543 86 538 q 64 554 72 549 q 47 567 53 560 q 44 581 43 574 q 64 596 46 588 q 142 629 104 615 q 188 646 179 643 q 207 652 200 650 q 217 653 214 654 q 222 644 221 651 q 222 621 222 638 l 222 117 q 231 65 224 89 q 253 40 238 40 m 44 847 q 38 888 33 867 q 61 921 42 910 q 102 928 81 932 q 135 904 124 924 q 181 838 160 864 q 219 797 203 813 q 249 774 236 782 q 268 764 261 767 q 281 750 282 756 q 264 744 281 742 q 227 753 256 746 q 164 772 199 760 q 96 803 129 785 q 46 846 63 822 l 44 847 z "},"":{"ha":535,"x_min":1,"x_max":481,"o":"m 467 201 q 476 192 476 201 l 476 190 q 460 103 476 142 q 415 40 443 65 q 350 0 388 14 q 269 -14 313 -14 q 147 10 197 -15 q 66 80 97 35 q 19 185 35 125 q 3 317 4 246 q 21 444 1 385 q 76 546 40 503 q 162 613 113 589 q 268 638 211 638 q 426 592 372 638 q 481 478 481 547 q 461 389 481 424 q 411 333 442 354 q 342 304 381 313 q 267 294 304 296 q 196 293 229 292 q 142 294 163 294 q 147 208 142 254 q 166 121 151 161 q 206 54 181 81 q 271 28 231 28 q 360 44 325 28 q 417 84 396 60 q 447 137 438 108 q 456 192 456 165 q 465 201 456 201 l 467 201 m 268 622 q 211 603 233 622 q 175 553 189 583 q 154 485 161 522 q 144 415 147 449 q 142 354 142 381 q 142 318 142 328 q 192 320 158 318 q 260 338 225 322 q 320 385 294 353 q 346 478 346 417 q 327 581 346 539 q 268 622 308 622 m 407 844 q 357 802 390 821 q 289 771 324 783 q 226 751 254 758 q 189 743 197 744 q 172 749 172 740 q 185 763 171 754 q 204 773 192 765 q 233 796 217 781 q 272 837 250 811 q 318 903 293 863 q 351 926 329 922 q 392 919 372 931 q 415 887 411 908 q 408 846 419 865 l 407 844 z "},"":{"ha":535,"x_min":18,"x_max":497,"o":"m 483 214 q 493 204 493 214 l 493 203 q 476 116 493 154 q 432 52 460 78 q 367 13 404 26 q 286 -1 329 -1 q 164 22 214 -3 q 83 92 114 47 q 36 198 51 138 q 19 329 21 258 q 38 456 18 397 q 93 558 57 515 q 178 626 129 601 q 285 650 228 650 q 443 605 389 650 q 497 490 497 560 q 478 401 497 436 q 428 346 458 367 q 359 317 397 325 q 283 306 321 308 q 213 306 246 304 q 158 307 179 307 q 163 220 158 267 q 183 133 168 174 q 222 67 197 93 q 288 40 247 40 q 377 56 342 40 q 433 97 413 72 q 463 149 454 121 q 472 204 472 178 q 482 214 472 214 l 483 214 m 285 635 q 228 615 251 635 q 192 565 206 596 q 171 498 178 535 q 161 427 164 461 q 158 367 158 393 q 158 331 158 340 q 209 333 175 331 q 277 350 243 335 q 338 397 311 365 q 364 490 364 429 q 344 593 364 551 q 285 635 325 635 m 474 763 q 486 749 488 754 q 469 743 486 740 q 443 751 463 744 q 398 766 424 757 q 344 788 372 775 q 293 815 317 800 q 241 788 269 800 q 187 766 213 775 q 141 751 161 757 q 115 743 121 744 q 99 749 99 740 q 111 763 97 754 q 131 773 118 765 q 160 796 143 781 q 198 837 176 811 q 244 903 219 863 q 265 924 253 915 q 293 931 278 932 q 319 924 307 932 q 340 903 332 915 q 387 837 365 863 q 425 796 408 811 q 454 773 442 781 q 474 763 467 765 z "},"":{"ha":592,"x_min":1,"x_max":549,"o":"m 236 57 q 287 67 265 57 q 324 91 308 76 q 350 120 340 106 q 365 146 360 135 l 365 517 q 361 532 365 525 q 351 544 357 539 q 339 554 346 550 q 321 567 326 560 q 319 581 317 574 q 338 596 321 588 q 416 631 379 615 q 463 650 453 647 q 493 654 486 658 q 500 626 500 650 l 500 150 q 504 99 500 121 q 512 63 507 79 q 526 47 517 47 q 543 41 538 47 q 549 26 549 35 q 542 12 549 18 q 526 6 536 6 l 389 6 q 373 12 379 6 q 365 26 367 18 l 365 110 q 345 81 360 100 q 307 44 331 63 q 250 13 283 26 q 174 -1 217 -1 q 108 12 132 -1 q 70 46 83 25 q 53 93 57 67 q 50 144 50 119 l 50 517 q 46 532 50 525 q 36 544 42 539 q 24 554 31 550 q 6 567 11 560 q 3 581 1 574 q 22 596 6 588 q 63 615 43 606 q 101 631 83 624 q 131 644 118 639 q 147 650 143 649 q 170 651 167 658 q 174 626 174 644 l 174 144 q 175 112 174 128 q 182 84 176 96 q 200 65 188 72 q 236 57 213 57 m 457 763 q 469 749 471 754 q 453 743 469 740 q 426 751 446 744 q 381 766 407 757 q 328 788 356 775 q 276 815 300 800 q 224 788 253 800 q 170 766 196 775 q 124 751 144 757 q 99 743 104 744 q 82 749 82 740 q 94 763 81 754 q 114 773 101 765 q 143 796 126 781 q 181 837 160 811 q 228 903 203 863 q 249 924 236 915 q 276 931 261 932 q 303 924 290 932 q 324 903 315 915 q 370 837 349 863 q 408 796 392 811 q 438 773 425 781 q 457 763 450 765 z "},"":{"ha":564,"x_min":3,"x_max":524,"o":"m 500 40 q 518 34 513 40 q 523 19 524 28 q 517 5 522 11 q 500 -1 511 -1 l 361 -1 q 345 5 351 -1 q 338 19 339 11 l 338 47 q 276 7 311 22 q 182 -8 240 -8 q 119 2 151 -8 q 62 34 88 13 q 19 88 36 56 q 3 163 3 119 q 26 249 3 213 q 87 309 49 285 q 174 344 125 333 q 272 356 222 356 q 310 354 293 356 q 338 350 326 353 l 338 449 q 338 513 338 481 q 333 571 338 544 q 314 613 328 597 q 271 629 300 629 q 213 621 242 629 q 167 597 185 613 q 148 558 150 581 q 169 508 146 536 q 192 464 189 486 q 188 424 196 442 q 163 394 181 406 q 125 381 146 382 q 58 401 82 378 q 35 463 35 425 q 47 523 35 490 q 88 583 60 556 q 160 630 115 611 q 271 649 206 649 q 422 600 375 649 q 468 447 468 551 l 469 139 q 471 105 469 122 q 476 73 472 88 q 485 49 479 58 q 500 40 492 40 m 232 25 q 294 42 268 25 q 338 75 321 58 l 338 322 q 313 332 329 328 q 272 336 297 336 q 169 289 203 336 q 135 163 135 242 q 160 58 135 92 q 232 25 186 25 m 457 763 q 469 749 471 754 q 453 743 469 740 q 426 751 446 744 q 381 766 407 757 q 328 788 356 775 q 276 815 300 800 q 224 788 253 800 q 170 766 196 775 q 124 751 144 757 q 99 743 104 744 q 82 749 82 740 q 94 763 81 754 q 114 773 101 765 q 143 796 126 781 q 181 837 160 811 q 228 903 203 863 q 249 924 236 915 q 276 931 261 932 q 303 924 290 932 q 324 903 315 915 q 370 837 349 863 q 408 796 392 811 q 438 773 425 781 q 457 763 450 765 z "},"":{"ha":406,"x_min":-4,"x_max":386,"o":"m 286 40 q 303 34 297 40 q 308 20 308 28 q 302 6 308 13 q 286 0 296 0 l 97 0 q 81 6 86 0 q 75 20 75 13 q 81 34 75 28 q 97 40 86 40 q 121 67 114 40 q 128 122 128 93 l 129 122 l 129 517 q 124 531 129 525 q 113 543 119 538 q 97 554 106 549 q 81 567 86 560 q 78 581 76 574 q 97 596 79 588 q 174 629 138 615 q 221 646 211 643 q 240 652 233 650 q 251 653 247 654 q 255 644 254 651 q 256 621 256 638 l 256 117 q 263 65 256 89 q 286 40 271 40 m 372 764 q 386 750 386 757 q 369 744 383 743 q 343 752 363 746 q 298 767 324 758 q 244 789 272 776 q 192 817 215 801 q 140 789 168 801 q 85 767 111 776 q 40 752 60 758 q 14 744 19 746 q -3 750 0 743 q 11 764 -4 756 q 31 774 18 767 q 60 797 43 782 q 98 838 76 813 q 144 904 119 864 q 165 925 151 917 q 192 932 178 933 q 219 925 206 933 q 239 904 232 917 q 285 838 264 864 q 324 797 307 813 q 353 774 340 782 q 372 764 365 767 z "},"":{"ha":592,"x_min":1,"x_max":549,"o":"m 526 42 q 543 35 538 42 q 549 21 549 29 q 542 6 549 13 q 526 0 536 0 l 389 0 q 373 6 379 0 q 365 21 367 13 l 365 103 q 344 73 358 92 q 305 37 329 54 q 248 6 281 19 q 174 -7 215 -7 q 108 6 132 -7 q 70 40 83 19 q 53 88 57 61 q 50 139 50 114 l 50 511 q 46 526 50 519 q 36 539 42 533 q 24 549 31 544 q 6 561 11 554 q 3 575 1 568 q 22 590 6 582 q 63 609 43 600 q 101 626 83 618 q 131 638 118 633 q 147 644 143 643 q 170 646 167 653 q 174 621 174 639 l 174 139 q 175 106 174 122 q 182 78 176 90 q 200 59 188 67 q 236 51 213 51 q 287 61 265 51 q 324 85 308 71 q 350 115 340 100 q 365 140 360 129 l 365 511 q 361 526 365 519 q 351 539 357 533 q 339 549 346 544 q 321 561 326 554 q 319 575 317 568 q 338 590 321 582 q 416 626 379 610 q 463 644 453 642 q 493 649 486 653 q 500 621 500 644 l 500 144 q 504 93 500 115 q 512 58 507 74 q 526 42 517 42 m 182 738 q 130 758 151 738 q 108 811 108 779 q 130 863 108 842 q 182 883 151 883 q 233 863 213 883 q 254 811 254 842 q 233 758 254 779 q 182 738 213 738 m 369 738 q 318 758 339 738 q 297 811 297 779 q 318 863 297 842 q 369 883 339 883 q 422 863 400 883 q 443 811 443 842 q 422 758 443 779 q 369 738 400 738 z "},"":{"ha":564,"x_min":10,"x_max":531,"o":"m 507 39 q 525 33 519 39 q 530 18 531 26 q 524 3 529 10 q 507 -3 518 -3 l 368 -3 q 352 3 358 -3 q 344 18 346 10 l 344 46 q 283 6 318 21 q 189 -10 247 -10 q 126 1 158 -10 q 69 33 94 11 q 26 86 43 54 q 10 161 10 118 q 33 247 10 211 q 94 308 56 283 q 181 343 132 332 q 279 354 229 354 q 317 353 300 354 q 344 349 333 351 l 344 447 q 344 511 344 479 q 340 569 344 543 q 321 612 335 596 q 278 628 307 628 q 220 619 249 628 q 174 595 192 611 q 155 557 157 579 q 176 507 153 535 q 199 463 196 485 q 195 422 203 440 q 170 392 188 404 q 132 379 153 381 q 65 400 89 376 q 42 461 42 424 q 54 522 42 489 q 94 582 67 554 q 167 628 122 610 q 278 647 213 647 q 428 599 382 647 q 475 446 475 550 l 476 138 q 478 103 476 121 q 483 72 479 86 q 492 48 486 57 q 507 39 499 39 m 239 24 q 301 40 275 24 q 344 74 328 57 l 344 321 q 320 331 336 326 q 279 335 304 335 q 176 288 210 335 q 142 161 142 240 q 167 57 142 90 q 239 24 193 24 m 175 743 q 124 764 144 743 q 103 817 103 785 q 124 868 103 847 q 175 889 144 889 q 227 868 206 889 q 249 817 249 847 q 227 764 249 785 q 175 743 206 743 m 364 743 q 313 764 333 743 q 292 817 292 785 q 313 868 292 847 q 364 889 333 889 q 416 868 394 889 q 438 817 438 847 q 416 764 438 785 q 364 743 394 743 z "},"":{"ha":535,"x_min":21,"x_max":500,"o":"m 486 200 q 496 190 496 200 l 496 189 q 479 102 496 140 q 435 38 463 64 q 369 -1 407 13 q 289 -15 332 -15 q 167 8 217 -17 q 85 78 117 33 q 39 184 54 124 q 22 315 24 244 q 40 442 21 383 q 96 544 60 501 q 181 612 132 588 q 288 636 231 636 q 446 591 392 636 q 500 476 500 546 q 481 388 500 422 q 431 332 461 353 q 362 303 400 311 q 286 292 324 294 q 215 292 249 290 q 161 293 182 293 q 166 206 161 253 q 185 119 171 160 q 225 53 200 79 q 290 26 250 26 q 380 42 344 26 q 436 83 415 58 q 466 135 457 107 q 475 190 475 164 q 485 200 475 200 l 486 200 m 288 621 q 231 601 254 621 q 194 551 208 582 q 174 484 181 521 q 164 413 167 447 q 161 353 161 379 q 161 317 161 326 q 212 319 178 317 q 280 336 246 321 q 340 383 314 351 q 367 476 367 415 q 347 579 367 538 q 288 621 328 621 m 188 724 q 136 744 157 724 q 115 796 115 765 q 136 849 115 828 q 188 869 157 869 q 240 849 218 869 q 261 796 261 828 q 240 744 261 765 q 188 724 218 724 m 376 724 q 325 744 346 724 q 304 796 304 765 q 325 849 304 828 q 376 869 346 869 q 428 849 407 869 q 450 796 450 828 q 428 744 450 765 q 376 724 407 724 z "},"":{"ha":358,"x_min":3,"x_max":338,"o":"m 264 39 q 281 33 276 39 q 286 19 286 26 q 280 5 286 11 q 264 -1 274 -1 l 76 -1 q 60 5 65 -1 q 54 19 54 11 q 59 33 54 26 q 76 39 64 39 q 99 65 92 39 q 107 121 106 92 l 107 515 q 102 530 107 524 q 92 542 97 536 q 76 553 85 547 q 58 565 64 558 q 56 579 54 572 q 75 594 58 586 q 153 628 115 614 q 199 644 190 642 q 218 651 211 649 q 228 651 225 653 q 233 643 232 650 q 233 619 233 636 l 233 115 q 242 63 235 88 q 264 39 249 39 m 264 738 q 213 758 233 738 q 192 810 192 779 q 213 863 192 842 q 264 883 233 883 q 316 863 294 883 q 338 810 338 842 q 316 758 338 779 q 264 738 294 738 m 76 738 q 24 758 46 738 q 3 810 3 779 q 24 863 3 842 q 76 883 46 883 q 128 863 107 883 q 149 810 149 842 q 128 758 149 779 q 76 738 107 738 z "},"":{"ha":550,"x_min":32,"x_max":510,"o":"m 32 304 q 59 478 32 413 q 124 577 86 543 q 202 622 161 611 q 271 632 243 632 q 340 622 299 632 q 418 577 381 611 q 483 479 456 543 q 510 307 510 415 l 510 304 q 483 133 510 197 q 418 35 456 69 q 340 -9 381 1 q 271 -19 299 -19 q 202 -9 243 -19 q 124 35 161 1 q 59 133 86 69 q 32 304 32 197 m 167 307 q 169 194 167 250 q 181 95 171 139 q 213 25 192 51 q 271 -1 233 -1 q 329 25 308 -1 q 360 95 350 51 q 373 193 371 139 q 375 304 375 247 l 375 307 q 373 419 375 364 q 360 517 371 474 q 329 588 350 561 q 271 614 308 614 q 213 588 233 614 q 181 517 192 561 q 169 419 171 474 q 167 307 167 364 m 451 744 q 465 731 465 738 q 449 725 463 724 q 422 733 442 726 q 377 748 403 739 q 323 769 351 757 q 271 797 294 782 q 219 769 247 782 q 165 748 190 757 q 119 733 139 739 q 93 725 99 726 q 76 731 79 724 q 90 744 76 738 q 110 755 97 747 q 139 778 122 763 q 177 819 156 793 q 224 885 199 844 q 244 906 231 897 q 271 913 257 914 q 298 906 285 914 q 318 885 311 897 q 365 819 343 844 q 403 778 386 793 q 432 755 419 763 q 451 744 444 747 z "},"":{"ha":550,"x_min":26,"x_max":504,"o":"m 26 322 q 53 496 26 431 q 118 595 81 561 q 197 640 156 629 q 265 650 238 650 q 334 640 293 650 q 413 595 375 629 q 477 497 450 561 q 504 325 504 433 l 504 322 q 477 151 504 215 q 413 53 450 88 q 334 9 375 19 q 265 -1 293 -1 q 197 9 238 -1 q 118 53 156 19 q 53 151 81 88 q 26 322 26 215 m 161 325 q 163 213 161 268 q 176 113 165 157 q 207 43 186 69 q 265 17 228 17 q 324 43 303 17 q 355 113 344 69 q 367 211 365 157 q 369 322 369 265 l 369 325 q 367 437 369 382 q 355 535 365 492 q 324 606 344 579 q 265 632 303 632 q 207 606 228 632 q 176 535 186 579 q 163 437 165 492 q 161 325 161 382 m 432 817 q 411 764 432 785 q 360 743 390 743 q 308 764 329 743 q 286 817 286 785 q 308 868 286 847 q 360 889 329 889 q 411 868 390 889 q 432 817 432 847 m 244 817 q 223 764 244 785 q 171 743 201 743 q 119 764 140 743 q 99 817 99 785 q 119 868 99 847 q 171 889 140 889 q 223 868 201 889 q 244 817 244 847 z "},"":{"ha":607,"x_min":3,"x_max":738,"o":"m 574 992 q 694 945 651 992 q 738 815 738 899 q 717 760 738 783 q 665 736 697 736 q 629 745 644 736 q 606 767 614 754 q 596 797 597 781 q 603 831 594 814 q 626 886 617 860 q 635 932 636 913 q 619 963 633 951 q 574 975 606 975 q 541 963 553 975 q 524 935 529 951 q 517 902 518 919 q 515 875 515 885 l 515 693 q 529 655 518 665 q 564 644 540 644 l 629 644 q 649 625 649 644 q 629 604 649 604 l 515 604 l 515 158 q 515 121 515 142 q 518 83 515 100 q 526 53 521 65 q 542 40 531 40 q 559 34 554 40 q 564 20 564 28 q 558 6 564 13 q 542 0 551 0 l 354 0 q 338 6 343 0 q 332 20 332 13 q 337 34 332 28 q 354 40 342 40 q 369 53 364 40 q 378 83 375 65 q 381 121 381 100 q 381 158 381 142 l 381 604 l 244 604 l 244 158 q 244 121 244 142 q 247 83 244 100 q 255 53 250 65 q 271 40 260 40 q 288 34 282 40 q 293 20 293 28 q 287 6 293 13 q 271 0 281 0 l 82 0 q 65 6 71 0 q 60 20 60 13 q 65 34 60 28 q 82 40 71 40 q 99 53 93 40 q 107 83 104 65 q 110 121 110 100 q 110 158 110 142 l 110 604 l 24 604 q 9 610 15 604 q 3 625 3 615 q 9 639 3 633 q 24 644 15 644 l 60 644 q 110 693 110 647 q 123 832 110 775 q 161 924 136 889 q 222 976 186 960 q 303 992 257 992 q 385 971 356 992 q 431 922 415 950 q 492 975 456 958 q 574 992 528 992 m 331 644 q 367 657 354 646 q 381 693 381 668 q 383 758 381 728 q 390 814 386 788 q 392 822 392 818 q 393 828 392 825 q 396 865 394 842 q 390 912 397 889 q 362 951 382 935 q 303 968 342 968 q 270 958 282 968 q 253 932 258 947 q 246 901 247 917 q 244 875 244 885 l 244 693 q 259 656 247 665 q 293 644 271 646 l 331 644 z "},"":{"ha":876,"x_min":3,"x_max":843,"o":"m 821 39 q 838 33 833 39 q 843 19 843 26 q 837 5 843 11 q 821 -1 831 -1 l 633 -1 q 617 5 622 -1 q 611 19 611 11 q 616 33 611 26 q 633 39 621 39 q 650 53 644 39 q 658 86 656 67 q 660 127 660 106 q 660 164 660 149 l 660 182 l 658 182 l 658 603 l 515 603 l 515 157 q 515 119 515 140 q 517 81 515 99 q 525 51 519 64 q 542 39 531 39 q 558 33 553 39 q 564 19 564 26 q 558 5 564 11 q 542 -1 551 -1 l 353 -1 q 336 5 342 -1 q 331 19 331 11 q 336 33 331 26 q 353 39 342 39 q 369 51 364 39 q 378 81 375 64 q 381 119 381 99 q 381 157 381 140 l 381 603 l 244 603 l 244 157 q 244 119 244 140 q 247 81 244 99 q 255 51 250 64 q 271 39 260 39 q 288 33 282 39 q 293 19 293 26 q 287 5 293 11 q 271 -1 281 -1 l 82 -1 q 65 5 71 -1 q 60 19 60 11 q 65 33 60 26 q 82 39 71 39 q 99 51 93 39 q 107 81 104 64 q 110 119 110 99 q 110 157 110 140 l 110 603 l 24 603 q 9 608 15 603 q 3 624 3 614 q 9 638 3 632 q 24 643 15 643 l 60 643 q 110 692 110 646 q 123 831 110 774 q 161 923 136 888 q 222 974 186 958 q 303 990 257 990 q 385 969 356 990 q 431 921 415 949 q 491 974 454 957 q 574 990 528 990 q 628 980 606 990 q 665 953 650 969 q 676 958 668 956 q 726 977 704 969 q 754 988 747 985 q 786 996 779 996 q 793 964 793 996 l 793 201 l 794 201 l 794 164 q 794 127 794 149 q 797 86 794 106 q 804 53 799 67 q 821 39 810 39 m 331 643 q 381 692 381 646 q 394 832 381 776 q 396 870 396 847 q 388 915 396 893 q 360 951 379 936 q 303 967 340 967 q 270 956 282 967 q 253 931 258 946 q 246 899 247 915 q 244 874 244 883 l 244 692 q 259 654 247 664 q 293 643 271 644 l 331 643 m 658 857 q 656 883 658 865 q 645 920 654 901 q 619 953 636 939 q 574 967 603 967 q 541 956 553 967 q 524 931 529 946 q 517 899 518 915 q 515 874 515 883 l 515 692 q 529 654 517 664 q 564 643 542 644 l 658 643 l 658 857 z "},"":{"ha":694,"x_min":50,"x_max":661,"o":"m 364 960 q 472 933 418 960 q 567 849 525 907 q 635 698 608 790 q 661 474 661 606 q 635 248 661 340 q 567 97 608 156 q 472 13 525 39 q 364 -14 418 -14 q 258 13 314 -14 q 156 97 203 39 q 80 248 110 156 q 50 474 50 340 q 80 698 50 606 q 156 849 110 790 q 258 933 203 907 q 364 960 314 960 m 364 13 q 444 40 413 13 q 494 123 476 67 q 519 266 513 179 q 526 474 526 353 q 519 680 526 593 q 494 823 513 767 q 444 906 476 879 q 364 932 413 932 q 228 822 272 932 q 185 474 185 713 q 228 123 185 233 q 364 13 272 13 m 239 1172 q 232 1213 228 1192 q 256 1246 236 1235 q 297 1253 275 1257 q 329 1229 318 1249 q 376 1163 354 1189 q 414 1122 397 1138 q 443 1099 431 1107 q 463 1089 456 1092 q 476 1075 476 1081 q 460 1069 474 1068 q 422 1078 451 1071 q 358 1097 393 1085 q 290 1128 324 1110 q 240 1171 257 1147 l 239 1172 z "},"":{"ha":694,"x_min":50,"x_max":661,"o":"m 364 960 q 472 933 418 960 q 567 849 525 907 q 635 698 608 790 q 661 474 661 606 q 635 248 661 340 q 567 97 608 156 q 472 13 525 39 q 364 -14 418 -14 q 258 13 314 -14 q 156 97 203 39 q 80 248 110 156 q 50 474 50 340 q 80 698 50 606 q 156 849 110 790 q 258 933 203 907 q 364 960 314 960 m 364 13 q 444 40 413 13 q 494 123 476 67 q 519 266 513 179 q 526 474 526 353 q 519 680 526 593 q 494 823 513 767 q 444 906 476 879 q 364 932 413 932 q 228 822 272 932 q 185 474 185 713 q 228 123 185 233 q 364 13 272 13 m 467 1172 q 465 1171 465 1172 q 415 1128 449 1147 q 347 1097 382 1110 q 283 1078 313 1085 q 246 1069 254 1071 q 229 1075 232 1068 q 243 1089 229 1082 q 263 1099 250 1092 q 292 1122 275 1107 q 330 1163 308 1138 q 376 1229 351 1189 q 409 1253 388 1249 q 450 1246 431 1257 q 474 1213 469 1235 q 467 1172 478 1192 z "},"":{"ha":694,"x_min":50,"x_max":661,"o":"m 364 960 q 472 933 418 960 q 567 849 525 907 q 635 698 608 790 q 661 474 661 606 q 635 248 661 340 q 567 97 608 156 q 472 13 525 39 q 364 -14 418 -14 q 258 13 314 -14 q 156 97 203 39 q 80 248 110 156 q 50 474 50 340 q 80 698 50 606 q 156 849 110 790 q 258 933 203 907 q 364 960 314 960 m 364 13 q 444 40 413 13 q 494 123 476 67 q 519 266 513 179 q 526 474 526 353 q 519 680 526 593 q 494 823 513 767 q 444 906 476 879 q 364 932 413 932 q 228 822 272 932 q 185 474 185 713 q 228 123 185 233 q 364 13 272 13 m 540 1089 q 553 1075 554 1081 q 536 1069 553 1067 q 510 1077 529 1071 q 465 1092 490 1083 q 410 1114 439 1101 q 358 1142 382 1126 q 306 1114 335 1126 q 252 1092 278 1101 q 207 1077 226 1083 q 182 1069 188 1071 q 165 1075 165 1067 q 178 1089 164 1081 q 197 1099 185 1092 q 226 1122 210 1107 q 265 1163 243 1138 q 311 1229 286 1189 q 332 1250 319 1242 q 358 1257 344 1258 q 386 1250 374 1258 q 407 1229 399 1242 q 453 1163 432 1189 q 492 1122 475 1138 q 521 1099 508 1107 q 540 1089 533 1092 z "},"":{"ha":694,"x_min":50,"x_max":661,"o":"m 331 1142 q 310 1090 331 1111 q 258 1069 289 1069 q 206 1090 228 1069 q 185 1142 185 1111 q 206 1194 185 1174 q 258 1215 228 1215 q 310 1194 289 1215 q 331 1142 331 1174 m 519 1142 q 498 1090 519 1111 q 446 1069 476 1069 q 394 1090 415 1069 q 374 1142 374 1111 q 394 1194 374 1174 q 446 1215 415 1215 q 498 1194 476 1215 q 519 1142 519 1174 m 364 960 q 472 933 418 960 q 567 849 525 907 q 635 698 608 790 q 661 474 661 606 q 635 248 661 340 q 567 97 608 156 q 472 13 525 39 q 364 -14 418 -14 q 258 13 314 -14 q 156 97 203 39 q 80 248 110 156 q 50 474 50 340 q 80 698 50 606 q 156 849 110 790 q 258 933 203 907 q 364 960 314 960 m 364 13 q 444 40 413 13 q 494 123 476 67 q 519 266 513 179 q 526 474 526 353 q 519 680 526 593 q 494 823 513 767 q 444 906 476 879 q 364 932 413 932 q 228 822 272 932 q 185 474 185 713 q 228 123 185 233 q 364 13 272 13 z "},"":{"ha":796,"x_min":46,"x_max":756,"o":"m 735 910 q 688 895 703 910 q 667 864 674 881 q 660 819 660 844 l 663 271 q 644 152 663 204 q 590 63 625 100 q 508 8 556 26 q 403 -11 461 -11 q 305 -6 358 -11 q 205 27 251 0 q 126 111 158 54 q 94 271 94 168 l 94 786 q 95 824 94 803 q 94 864 96 844 q 87 897 93 883 q 68 910 81 910 q 51 916 57 910 q 46 930 46 922 q 51 944 46 938 q 68 950 57 950 l 257 950 q 273 944 267 950 q 279 930 279 938 q 274 916 279 922 q 257 910 268 910 q 238 897 244 910 q 230 864 232 883 q 228 824 228 844 q 229 786 229 803 l 229 271 q 272 73 229 136 q 403 10 315 10 q 510 35 467 10 q 580 98 554 60 q 617 182 606 136 q 628 271 628 228 l 628 819 q 621 864 628 844 q 599 895 614 881 q 556 910 585 910 q 542 916 547 910 q 536 931 536 922 q 556 950 536 950 l 735 950 q 749 944 743 950 q 756 931 756 939 q 749 916 756 922 q 735 910 743 910 m 278 1172 q 271 1213 267 1192 q 294 1246 275 1235 q 335 1253 314 1257 q 368 1229 357 1249 q 415 1163 393 1189 q 453 1122 436 1138 q 482 1099 469 1107 q 501 1089 494 1092 q 515 1075 515 1081 q 499 1069 513 1068 q 461 1078 490 1071 q 397 1097 432 1085 q 329 1128 363 1110 q 279 1171 296 1147 l 278 1172 z "},"":{"ha":796,"x_min":46,"x_max":756,"o":"m 735 910 q 688 895 703 910 q 667 864 674 881 q 660 819 660 844 l 663 271 q 644 152 663 204 q 590 63 625 100 q 508 8 556 26 q 403 -11 461 -11 q 305 -6 358 -11 q 205 27 251 0 q 126 111 158 54 q 94 271 94 168 l 94 786 q 95 824 94 803 q 94 864 96 844 q 87 897 93 883 q 68 910 81 910 q 51 916 57 910 q 46 930 46 922 q 51 944 46 938 q 68 950 57 950 l 257 950 q 273 944 267 950 q 279 930 279 938 q 274 916 279 922 q 257 910 268 910 q 238 897 244 910 q 230 864 232 883 q 228 824 228 844 q 229 786 229 803 l 229 271 q 272 73 229 136 q 403 10 315 10 q 510 35 467 10 q 580 98 554 60 q 617 182 606 136 q 628 271 628 228 l 628 819 q 621 864 628 844 q 599 895 614 881 q 556 910 585 910 q 542 916 547 910 q 536 931 536 922 q 556 950 536 950 l 735 950 q 749 944 743 950 q 756 931 756 939 q 749 916 756 922 q 735 910 743 910 m 507 1172 q 506 1171 506 1172 q 456 1128 489 1147 q 388 1097 422 1110 q 324 1078 353 1085 q 286 1069 294 1071 q 269 1075 272 1068 q 283 1089 269 1082 q 303 1099 290 1092 q 332 1122 315 1107 q 370 1163 349 1138 q 417 1229 392 1189 q 449 1253 428 1249 q 490 1246 471 1257 q 514 1213 510 1235 q 507 1172 518 1192 z "},"":{"ha":796,"x_min":46,"x_max":756,"o":"m 735 910 q 688 895 703 910 q 667 864 674 881 q 660 819 660 844 l 663 271 q 644 152 663 204 q 590 63 625 100 q 508 8 556 26 q 403 -11 461 -11 q 305 -6 358 -11 q 205 27 251 0 q 126 111 158 54 q 94 271 94 168 l 94 786 q 95 824 94 803 q 94 864 96 844 q 87 897 93 883 q 68 910 81 910 q 51 916 57 910 q 46 930 46 922 q 51 944 46 938 q 68 950 57 950 l 257 950 q 273 944 267 950 q 279 930 279 938 q 274 916 279 922 q 257 910 268 910 q 238 897 244 910 q 230 864 232 883 q 228 824 228 844 q 229 786 229 803 l 229 271 q 272 73 229 136 q 403 10 315 10 q 510 35 467 10 q 580 98 554 60 q 617 182 606 136 q 628 271 628 228 l 628 819 q 621 864 628 844 q 599 895 614 881 q 556 910 585 910 q 542 916 547 910 q 536 931 536 922 q 556 950 536 950 l 735 950 q 749 944 743 950 q 756 931 756 939 q 749 916 756 922 q 735 910 743 910 m 576 1089 q 589 1075 590 1081 q 572 1069 589 1067 q 546 1077 565 1071 q 501 1092 526 1083 q 447 1114 475 1101 q 394 1142 418 1126 q 342 1114 371 1126 q 288 1092 314 1101 q 243 1077 263 1083 q 218 1069 224 1071 q 201 1075 201 1067 q 214 1089 200 1081 q 233 1099 221 1092 q 263 1122 246 1107 q 301 1163 279 1138 q 347 1229 322 1189 q 368 1250 356 1242 q 394 1257 381 1258 q 422 1250 410 1258 q 443 1229 435 1242 q 490 1163 468 1189 q 528 1122 511 1138 q 557 1099 544 1107 q 576 1089 569 1092 z "},"":{"ha":796,"x_min":46,"x_max":756,"o":"m 735 910 q 688 895 703 910 q 667 864 674 881 q 660 819 660 844 l 663 271 q 644 152 663 204 q 590 63 625 100 q 508 8 556 26 q 403 -11 461 -11 q 305 -6 358 -11 q 205 27 251 0 q 126 111 158 54 q 94 271 94 168 l 94 786 q 95 824 94 803 q 94 864 96 844 q 87 897 93 883 q 68 910 81 910 q 51 916 57 910 q 46 930 46 922 q 51 944 46 938 q 68 950 57 950 l 257 950 q 273 944 267 950 q 279 930 279 938 q 274 916 279 922 q 257 910 268 910 q 238 897 244 910 q 230 864 232 883 q 228 824 228 844 q 229 786 229 803 l 229 271 q 272 73 229 136 q 403 10 315 10 q 510 35 467 10 q 580 98 554 60 q 617 182 606 136 q 628 271 628 228 l 628 819 q 621 864 628 844 q 599 895 614 881 q 556 910 585 910 q 542 916 547 910 q 536 931 536 922 q 556 950 536 950 l 735 950 q 749 944 743 950 q 756 931 756 939 q 749 916 756 922 q 735 910 743 910 m 563 1142 q 541 1090 563 1111 q 489 1069 519 1069 q 438 1090 458 1069 q 417 1142 417 1111 q 438 1194 417 1174 q 489 1215 458 1215 q 541 1194 519 1215 q 563 1142 563 1174 m 374 1142 q 353 1090 374 1111 q 301 1069 332 1069 q 249 1090 271 1069 q 228 1142 228 1111 q 249 1194 228 1174 q 301 1215 271 1215 q 353 1194 332 1215 q 374 1142 374 1174 z "},"":{"ha":782,"x_min":33,"x_max":747,"o":"m 728 39 q 742 33 736 39 q 747 19 747 26 q 728 0 747 0 l 544 0 q 526 19 526 0 q 532 33 526 26 q 544 39 538 39 q 561 61 561 39 q 555 103 563 72 q 533 181 547 135 q 489 254 515 214 q 428 330 463 294 q 349 390 393 365 q 254 418 306 415 l 154 104 q 151 69 146 85 q 170 47 154 57 q 222 36 186 36 l 222 35 q 240 18 240 35 q 222 0 240 0 l 51 0 q 33 18 33 0 q 51 35 33 35 l 51 36 q 82 42 69 36 q 103 59 94 49 q 115 81 111 69 q 124 104 119 93 l 340 788 q 382 932 368 889 q 390 947 385 939 q 410 954 394 954 q 428 947 424 954 q 435 933 432 939 q 458 857 443 907 q 491 742 472 807 q 531 603 510 678 q 575 455 553 529 q 618 311 597 381 q 656 187 639 242 q 684 97 672 132 q 700 56 696 61 q 724 39 713 39 l 728 39 m 260 433 q 392 411 340 431 q 472 372 444 392 q 438 476 456 424 q 405 575 421 528 q 376 663 389 622 q 356 732 364 703 l 260 433 m 272 1172 q 265 1213 260 1192 q 289 1246 269 1235 q 329 1253 308 1257 q 363 1229 350 1249 q 409 1163 388 1189 q 447 1122 431 1138 q 476 1099 464 1107 q 494 1089 488 1092 q 508 1075 510 1081 q 492 1069 508 1067 q 455 1078 483 1071 q 392 1097 426 1085 q 324 1128 357 1110 q 274 1171 290 1147 q 272 1172 272 1171 z "},"":{"ha":782,"x_min":33,"x_max":747,"o":"m 728 39 q 742 33 736 39 q 747 19 747 26 q 728 0 747 0 l 544 0 q 526 19 526 0 q 532 33 526 26 q 544 39 538 39 q 561 61 561 39 q 555 103 563 72 q 533 181 547 135 q 489 254 515 214 q 428 330 463 294 q 349 390 393 365 q 254 418 306 415 l 154 104 q 151 69 146 85 q 170 47 154 57 q 222 36 186 36 l 222 35 q 240 18 240 35 q 222 0 240 0 l 51 0 q 33 18 33 0 q 51 35 33 35 l 51 36 q 82 42 69 36 q 103 59 94 49 q 115 81 111 69 q 124 104 119 93 l 340 788 q 382 932 368 889 q 390 947 385 939 q 410 954 394 954 q 428 947 424 954 q 435 933 432 939 q 458 857 443 907 q 491 742 472 807 q 531 603 510 678 q 575 455 553 529 q 618 311 597 381 q 656 187 639 242 q 684 97 672 132 q 700 56 696 61 q 724 39 713 39 l 728 39 m 260 433 q 392 411 340 431 q 472 372 444 392 q 438 476 456 424 q 405 575 421 528 q 376 663 389 622 q 356 732 364 703 l 260 433 m 540 1172 q 539 1171 540 1172 q 489 1128 522 1147 q 421 1097 456 1110 q 358 1078 386 1085 q 321 1069 329 1071 q 304 1075 304 1067 q 318 1089 303 1081 q 338 1099 325 1092 q 367 1122 350 1107 q 404 1163 383 1138 q 450 1229 425 1189 q 483 1253 463 1249 q 524 1246 504 1257 q 548 1213 543 1235 q 540 1172 553 1192 z "},"":{"ha":782,"x_min":33,"x_max":747,"o":"m 728 39 q 742 33 736 39 q 747 19 747 26 q 728 0 747 0 l 544 0 q 526 19 526 0 q 532 33 526 26 q 544 39 538 39 q 561 61 561 39 q 555 103 563 72 q 533 181 547 135 q 489 254 515 214 q 428 330 463 294 q 349 390 393 365 q 254 418 306 415 l 154 104 q 151 69 146 85 q 170 47 154 57 q 222 36 186 36 l 222 35 q 240 18 240 35 q 222 0 240 0 l 51 0 q 33 18 33 0 q 51 35 33 35 l 51 36 q 82 42 69 36 q 103 59 94 49 q 115 81 111 69 q 124 104 119 93 l 340 788 q 382 932 368 889 q 390 947 385 939 q 410 954 394 954 q 428 947 424 954 q 435 933 432 939 q 458 857 443 907 q 491 742 472 807 q 531 603 510 678 q 575 455 553 529 q 618 311 597 381 q 656 187 639 242 q 684 97 672 132 q 700 56 696 61 q 724 39 713 39 l 728 39 m 260 433 q 392 411 340 431 q 472 372 444 392 q 438 476 456 424 q 405 575 421 528 q 376 663 389 622 q 356 732 364 703 l 260 433 m 567 1089 q 581 1075 582 1081 q 564 1069 578 1068 q 538 1077 557 1071 q 492 1092 518 1083 q 438 1114 467 1101 q 386 1142 410 1126 q 334 1114 363 1126 q 280 1092 306 1101 q 234 1077 254 1083 q 208 1069 214 1071 q 192 1075 194 1068 q 206 1089 192 1082 q 225 1099 213 1092 q 254 1122 238 1107 q 292 1163 271 1138 q 339 1229 314 1189 q 359 1250 346 1242 q 386 1257 372 1258 q 413 1250 400 1258 q 433 1229 426 1242 q 480 1163 458 1189 q 518 1122 501 1138 q 547 1099 535 1107 q 567 1089 560 1092 z "},"":{"ha":782,"x_min":33,"x_max":747,"o":"m 728 39 q 742 33 736 39 q 747 19 747 26 q 728 0 747 0 l 544 0 q 526 19 526 0 q 532 33 526 26 q 544 39 538 39 q 561 61 561 39 q 555 103 563 72 q 533 181 547 135 q 489 254 515 214 q 428 330 463 294 q 349 390 393 365 q 254 418 306 415 l 154 104 q 151 69 146 85 q 170 47 154 57 q 222 36 186 36 l 222 35 q 240 18 240 35 q 222 0 240 0 l 51 0 q 33 18 33 0 q 51 35 33 35 l 51 36 q 82 42 69 36 q 103 59 94 49 q 115 81 111 69 q 124 104 119 93 l 340 788 q 382 932 368 889 q 390 947 385 939 q 410 954 394 954 q 428 947 424 954 q 435 933 432 939 q 458 857 443 907 q 491 742 472 807 q 531 603 510 678 q 575 455 553 529 q 618 311 597 381 q 656 187 639 242 q 684 97 672 132 q 700 56 696 61 q 724 39 713 39 l 728 39 m 260 433 q 392 411 340 431 q 472 372 444 392 q 438 476 456 424 q 405 575 421 528 q 376 663 389 622 q 356 732 364 703 l 260 433 m 364 1142 q 342 1090 364 1111 q 290 1069 321 1069 q 239 1090 260 1069 q 218 1142 218 1111 q 239 1194 218 1174 q 290 1215 260 1215 q 342 1194 321 1215 q 364 1142 364 1174 m 551 1142 q 531 1090 551 1111 q 479 1069 510 1069 q 427 1090 449 1069 q 406 1142 406 1111 q 427 1194 406 1174 q 479 1215 449 1215 q 531 1194 510 1215 q 551 1142 551 1174 z "},"":{"ha":672,"x_min":46,"x_max":624,"o":"m 597 951 q 618 944 613 951 q 624 924 624 936 l 624 767 q 617 752 624 758 q 603 746 611 746 q 589 752 594 746 q 583 767 583 758 q 582 833 583 803 q 563 884 581 863 q 502 917 544 906 q 378 929 460 929 l 229 929 l 229 507 l 346 507 q 378 508 357 507 q 422 518 400 510 q 460 546 444 526 q 476 601 476 565 q 496 621 476 621 q 510 615 504 621 q 517 601 517 610 l 517 390 q 510 376 517 382 q 496 369 504 369 q 482 376 488 369 q 476 390 476 382 q 460 446 476 426 q 422 474 444 465 q 378 483 400 482 q 346 485 357 485 l 229 485 l 229 22 l 378 22 q 502 34 460 22 q 563 67 544 46 q 582 119 581 89 q 583 185 583 149 q 603 204 583 204 q 617 199 611 204 q 624 185 624 193 l 624 28 q 618 8 624 15 q 597 0 613 0 l 68 0 q 51 6 57 0 q 46 20 46 13 q 51 34 46 28 q 68 40 57 40 q 85 53 79 40 q 92 85 90 67 q 94 125 94 104 q 94 161 94 146 l 94 824 q 90 883 94 854 q 68 911 85 911 q 51 917 57 911 q 46 931 46 924 q 51 945 46 939 q 68 951 57 951 l 597 951 m 214 1172 q 206 1213 201 1192 q 231 1246 211 1235 q 271 1253 250 1257 q 304 1229 292 1249 q 351 1163 329 1189 q 389 1122 372 1138 q 417 1099 406 1107 q 436 1089 429 1092 q 450 1075 451 1081 q 433 1069 450 1067 q 397 1078 425 1071 q 333 1097 368 1085 q 265 1128 299 1110 q 215 1171 232 1147 q 214 1172 214 1171 z "},"":{"ha":672,"x_min":46,"x_max":624,"o":"m 597 951 q 618 944 613 951 q 624 924 624 936 l 624 767 q 617 752 624 758 q 603 746 611 746 q 589 752 594 746 q 583 767 583 758 q 582 833 583 803 q 563 884 581 863 q 502 917 544 906 q 378 929 460 929 l 229 929 l 229 507 l 346 507 q 378 508 357 507 q 422 518 400 510 q 460 546 444 526 q 476 601 476 565 q 496 621 476 621 q 510 615 504 621 q 517 601 517 610 l 517 390 q 510 376 517 382 q 496 369 504 369 q 482 376 488 369 q 476 390 476 382 q 460 446 476 426 q 422 474 444 465 q 378 483 400 482 q 346 485 357 485 l 229 485 l 229 22 l 378 22 q 502 34 460 22 q 563 67 544 46 q 582 119 581 89 q 583 185 583 149 q 603 204 583 204 q 617 199 611 204 q 624 185 624 193 l 624 28 q 618 8 624 15 q 597 0 613 0 l 68 0 q 51 6 57 0 q 46 20 46 13 q 51 34 46 28 q 68 40 57 40 q 85 53 79 40 q 92 85 90 67 q 94 125 94 104 q 94 161 94 146 l 94 824 q 90 883 94 854 q 68 911 85 911 q 51 917 57 911 q 46 931 46 924 q 51 945 46 939 q 68 951 57 951 l 597 951 m 438 1172 q 436 1171 438 1172 q 386 1128 419 1147 q 318 1097 353 1110 q 255 1078 283 1085 q 218 1069 226 1071 q 201 1075 201 1067 q 215 1089 200 1081 q 235 1099 222 1092 q 264 1122 247 1107 q 301 1163 281 1138 q 347 1229 322 1189 q 381 1253 360 1249 q 421 1246 401 1257 q 445 1213 440 1235 q 438 1172 450 1192 z "},"":{"ha":672,"x_min":46,"x_max":624,"o":"m 597 951 q 618 944 613 951 q 624 924 624 936 l 624 767 q 617 752 624 758 q 603 746 611 746 q 589 752 594 746 q 583 767 583 758 q 582 833 583 803 q 563 884 581 863 q 502 917 544 906 q 378 929 460 929 l 229 929 l 229 507 l 346 507 q 378 508 357 507 q 422 518 400 510 q 460 546 444 526 q 476 601 476 565 q 496 621 476 621 q 510 615 504 621 q 517 601 517 610 l 517 390 q 510 376 517 382 q 496 369 504 369 q 482 376 488 369 q 476 390 476 382 q 460 446 476 426 q 422 474 444 465 q 378 483 400 482 q 346 485 357 485 l 229 485 l 229 22 l 378 22 q 502 34 460 22 q 563 67 544 46 q 582 119 581 89 q 583 185 583 149 q 603 204 583 204 q 617 199 611 204 q 624 185 624 193 l 624 28 q 618 8 624 15 q 597 0 613 0 l 68 0 q 51 6 57 0 q 46 20 46 13 q 51 34 46 28 q 68 40 57 40 q 85 53 79 40 q 92 85 90 67 q 94 125 94 104 q 94 161 94 146 l 94 824 q 90 883 94 854 q 68 911 85 911 q 51 917 57 911 q 46 931 46 924 q 51 945 46 939 q 68 951 57 951 l 597 951 m 510 1089 q 524 1075 525 1081 q 507 1069 521 1068 q 481 1077 500 1071 q 435 1092 461 1083 q 381 1114 410 1101 q 329 1142 353 1126 q 277 1114 306 1126 q 223 1092 249 1101 q 177 1077 197 1083 q 151 1069 157 1071 q 135 1075 138 1068 q 149 1089 135 1082 q 168 1099 156 1092 q 197 1122 181 1107 q 235 1163 214 1138 q 282 1229 257 1189 q 302 1250 289 1242 q 329 1257 315 1258 q 356 1250 343 1258 q 376 1229 369 1242 q 423 1163 401 1189 q 461 1122 444 1138 q 490 1099 478 1107 q 510 1089 503 1092 z "},"":{"ha":672,"x_min":46,"x_max":624,"o":"m 597 951 q 618 944 613 951 q 624 924 624 936 l 624 767 q 617 752 624 758 q 603 746 611 746 q 589 752 594 746 q 583 767 583 758 q 582 833 583 803 q 563 884 581 863 q 502 917 544 906 q 378 929 460 929 l 229 929 l 229 507 l 346 507 q 378 508 357 507 q 422 518 400 510 q 460 546 444 526 q 476 601 476 565 q 496 621 476 621 q 510 615 504 621 q 517 601 517 610 l 517 390 q 510 376 517 382 q 496 369 504 369 q 482 376 488 369 q 476 390 476 382 q 460 446 476 426 q 422 474 444 465 q 378 483 400 482 q 346 485 357 485 l 229 485 l 229 22 l 378 22 q 502 34 460 22 q 563 67 544 46 q 582 119 581 89 q 583 185 583 149 q 603 204 583 204 q 617 199 611 204 q 624 185 624 193 l 624 28 q 618 8 624 15 q 597 0 613 0 l 68 0 q 51 6 57 0 q 46 20 46 13 q 51 34 46 28 q 68 40 57 40 q 85 53 79 40 q 92 85 90 67 q 94 125 94 104 q 94 161 94 146 l 94 824 q 90 883 94 854 q 68 911 85 911 q 51 917 57 911 q 46 931 46 924 q 51 945 46 939 q 68 951 57 951 l 597 951 m 307 1142 q 285 1090 307 1111 q 233 1069 264 1069 q 182 1090 203 1069 q 161 1142 161 1111 q 182 1194 161 1174 q 233 1215 203 1215 q 285 1194 264 1215 q 307 1142 307 1174 m 494 1142 q 474 1090 494 1111 q 422 1069 453 1069 q 370 1090 392 1069 q 349 1142 349 1111 q 370 1194 349 1174 q 422 1215 392 1215 q 474 1194 453 1215 q 494 1142 494 1174 z "},"":{"ha":318,"x_min":39,"x_max":289,"o":"m 256 911 q 228 883 238 911 q 218 824 219 854 l 218 161 q 220 125 218 146 q 226 85 222 104 q 238 53 231 67 q 256 40 244 40 q 272 34 267 40 q 278 20 278 28 q 272 6 278 13 q 256 0 265 0 l 67 0 q 50 6 56 0 q 44 20 44 13 q 50 34 44 28 q 67 40 56 40 q 84 53 78 40 q 94 85 90 67 q 98 125 97 104 q 99 161 99 146 l 99 824 q 91 883 99 854 q 67 911 83 911 q 50 917 56 911 q 44 931 44 924 q 50 945 44 939 q 67 951 56 951 l 256 951 q 272 945 265 951 q 278 931 278 939 q 272 917 278 924 q 256 911 267 911 m 51 1172 q 44 1213 39 1192 q 68 1246 49 1235 q 108 1253 88 1257 q 142 1229 129 1249 q 188 1163 167 1189 q 226 1122 210 1138 q 255 1099 243 1107 q 274 1089 267 1092 q 288 1075 289 1081 q 271 1069 288 1067 q 234 1078 263 1071 q 171 1097 206 1085 q 103 1128 136 1110 q 53 1171 69 1147 q 51 1172 51 1171 z "},"":{"ha":318,"x_min":40,"x_max":290,"o":"m 256 911 q 228 883 238 911 q 218 824 219 854 l 218 161 q 220 125 218 146 q 226 85 222 104 q 238 53 231 67 q 256 40 244 40 q 272 34 267 40 q 278 20 278 28 q 272 6 278 13 q 256 0 265 0 l 67 0 q 50 6 56 0 q 44 20 44 13 q 50 34 44 28 q 67 40 56 40 q 84 53 78 40 q 94 85 90 67 q 98 125 97 104 q 99 161 99 146 l 99 824 q 91 883 99 854 q 67 911 83 911 q 50 917 56 911 q 44 931 44 924 q 50 945 44 939 q 67 951 56 951 l 256 951 q 272 945 265 951 q 278 931 278 939 q 272 917 278 924 q 256 911 267 911 m 278 1172 q 276 1171 278 1172 q 226 1128 260 1147 q 158 1097 193 1110 q 95 1078 124 1085 q 58 1069 67 1071 q 42 1075 42 1067 q 56 1089 40 1081 q 75 1099 63 1092 q 104 1122 88 1107 q 142 1163 121 1138 q 188 1229 163 1189 q 221 1253 200 1249 q 261 1246 242 1257 q 285 1213 281 1235 q 278 1172 290 1192 z "},"":{"ha":318,"x_min":-31,"x_max":360,"o":"m 256 911 q 228 883 238 911 q 218 824 219 854 l 218 161 q 220 125 218 146 q 226 85 222 104 q 238 53 231 67 q 256 40 244 40 q 272 34 267 40 q 278 20 278 28 q 272 6 278 13 q 256 0 265 0 l 67 0 q 50 6 56 0 q 44 20 44 13 q 50 34 44 28 q 67 40 56 40 q 84 53 78 40 q 94 85 90 67 q 98 125 97 104 q 99 161 99 146 l 99 824 q 91 883 99 854 q 67 911 83 911 q 50 917 56 911 q 44 931 44 924 q 50 945 44 939 q 67 951 56 951 l 256 951 q 272 945 265 951 q 278 931 278 939 q 272 917 278 924 q 256 911 267 911 m 344 1089 q 358 1075 360 1081 q 342 1069 356 1068 q 315 1077 335 1071 q 270 1092 296 1083 q 216 1114 244 1101 q 164 1142 188 1126 q 112 1114 140 1126 q 58 1092 83 1101 q 12 1077 32 1083 q -14 1069 -8 1071 q -31 1075 -28 1068 q -17 1089 -31 1082 q 3 1099 -10 1092 q 32 1122 15 1107 q 70 1163 49 1138 q 117 1229 92 1189 q 137 1250 124 1242 q 164 1257 150 1258 q 191 1250 178 1258 q 211 1229 204 1242 q 258 1163 236 1189 q 296 1122 279 1138 q 325 1099 313 1107 q 344 1089 338 1092 z "},"":{"ha":318,"x_min":-4,"x_max":329,"o":"m 256 911 q 228 883 238 911 q 218 824 219 854 l 218 161 q 220 125 218 146 q 226 85 222 104 q 238 53 231 67 q 256 40 244 40 q 272 34 267 40 q 278 20 278 28 q 272 6 278 13 q 256 0 265 0 l 67 0 q 50 6 56 0 q 44 20 44 13 q 50 34 44 28 q 67 40 56 40 q 84 53 78 40 q 94 85 90 67 q 98 125 97 104 q 99 161 99 146 l 99 824 q 91 883 99 854 q 67 911 83 911 q 50 917 56 911 q 44 931 44 924 q 50 945 44 939 q 67 951 56 951 l 256 951 q 272 945 265 951 q 278 931 278 939 q 272 917 278 924 q 256 911 267 911 m 142 1142 q 120 1090 142 1111 q 68 1069 99 1069 q 17 1090 38 1069 q -4 1142 -4 1111 q 17 1194 -4 1174 q 68 1215 38 1215 q 120 1194 99 1215 q 142 1142 142 1174 m 329 1142 q 308 1090 329 1111 q 257 1069 288 1069 q 205 1090 226 1069 q 183 1142 183 1111 q 205 1194 183 1174 q 257 1215 226 1215 q 308 1194 288 1215 q 329 1142 329 1174 z "},"a":{"ha":579,"x_min":28,"x_max":549,"o":"m 526 40 q 543 34 538 40 q 549 20 549 28 q 542 6 549 13 q 526 0 536 0 l 386 0 q 371 6 378 0 q 363 21 364 11 l 363 47 q 301 7 336 24 q 207 -10 265 -10 q 144 1 176 -10 q 87 34 113 13 q 44 88 61 56 q 28 163 28 121 q 51 249 28 213 q 112 310 74 286 q 199 344 150 333 q 297 356 247 356 q 335 354 318 356 q 363 351 351 353 l 363 450 q 363 515 363 482 q 358 573 364 547 q 339 615 353 599 q 296 632 325 632 q 238 623 267 632 q 192 598 210 614 q 174 559 175 582 q 196 508 172 536 q 217 464 214 486 q 213 424 221 442 q 188 394 206 406 q 150 381 171 382 q 83 401 107 378 q 60 463 60 425 q 72 524 60 490 q 113 585 85 557 q 185 633 140 614 q 296 651 231 651 q 447 602 400 651 q 493 447 493 553 l 494 139 q 496 105 494 122 q 501 73 497 88 q 510 49 504 58 q 526 40 517 40 m 257 28 q 319 43 293 28 q 363 76 346 58 l 363 324 q 339 333 354 328 q 297 338 324 338 q 194 290 228 338 q 160 163 160 243 q 186 60 160 92 q 257 28 213 28 z "},"b":{"ha":594,"x_min":26,"x_max":565,"o":"m 369 650 q 425 638 392 650 q 490 590 458 625 q 543 489 521 554 q 565 318 565 424 q 543 147 565 211 q 490 48 521 83 q 425 1 458 13 q 369 -10 392 -10 q 310 -2 336 -10 q 265 17 285 6 q 233 42 246 29 q 211 65 219 54 l 211 21 q 188 0 208 0 l 49 0 q 32 6 38 0 q 26 20 26 13 q 32 34 26 28 q 49 40 38 40 q 64 49 58 40 q 72 73 69 58 q 76 105 75 88 q 76 139 76 122 q 76 144 76 140 q 76 169 76 149 q 76 232 76 189 q 76 355 76 275 q 76 557 76 435 q 75 858 75 679 q 71 874 75 867 q 61 886 67 881 q 49 896 56 892 q 31 908 36 901 q 28 922 26 915 q 47 938 31 929 q 126 971 89 957 q 172 988 163 985 q 192 994 185 992 q 203 996 199 997 q 208 987 207 994 q 210 963 210 979 l 210 571 q 231 596 218 582 q 264 622 244 610 q 310 642 283 633 q 369 650 336 650 m 329 18 q 383 44 363 18 q 413 114 403 71 q 427 210 424 157 q 431 318 431 264 q 427 426 431 372 q 413 523 424 479 q 383 594 403 567 q 329 621 363 621 q 252 591 281 621 q 210 531 224 561 l 211 106 q 228 76 218 92 q 252 48 238 61 q 285 26 267 35 q 329 18 304 18 z "},"c":{"ha":551,"x_min":36,"x_max":525,"o":"m 514 218 q 525 207 525 218 q 510 137 525 175 q 468 66 496 99 q 399 12 440 33 q 303 -10 357 -10 q 183 15 233 -10 q 99 83 132 39 q 51 192 67 128 q 36 336 36 257 q 58 462 36 404 q 115 561 79 519 q 199 626 151 603 q 301 650 247 650 q 400 635 358 650 q 469 594 442 619 q 511 538 497 569 q 525 472 525 506 q 508 409 525 435 q 447 383 492 383 q 417 390 433 383 q 391 410 401 396 q 380 449 381 425 q 396 508 379 472 q 407 549 404 526 q 401 589 410 571 q 368 619 392 607 q 301 632 344 632 q 226 601 251 632 q 190 525 200 571 q 178 425 179 479 q 178 325 178 371 q 181 232 178 283 q 196 135 183 181 q 233 58 208 89 q 303 26 258 26 q 393 44 356 26 q 455 90 431 63 q 491 149 479 117 q 503 207 503 181 q 514 218 503 218 z "},"":{"ha":1157,"x_min":0,"x_max":0,"o":""},"R":{"ha":783,"x_min":3,"x_max":710,"o":"m 688 39 q 704 33 699 39 q 710 19 710 26 q 703 6 710 13 q 688 0 697 0 l 611 0 q 544 7 575 0 q 490 41 513 14 q 453 121 467 68 q 440 265 440 174 q 432 385 440 338 q 404 459 424 432 q 352 497 385 486 q 269 507 319 507 l 186 507 l 186 125 q 192 67 188 94 q 214 40 197 40 q 231 34 225 40 q 236 20 236 28 q 230 6 236 13 q 214 0 224 0 l 25 0 q 9 6 14 0 q 4 20 4 13 q 9 34 4 28 q 25 40 14 40 q 40 49 35 40 q 47 73 44 58 q 51 105 50 88 q 51 139 51 122 l 51 824 q 47 883 51 854 q 25 911 42 911 q 8 917 14 911 q 3 931 3 924 q 8 945 3 939 q 25 951 14 951 l 267 951 q 403 944 342 951 q 508 915 464 936 q 577 856 553 894 q 601 754 601 817 q 553 619 601 671 q 422 540 506 568 q 496 515 468 533 q 540 464 524 497 q 560 382 556 431 q 565 265 565 333 q 577 142 565 188 q 607 74 589 97 q 647 45 625 51 q 688 39 668 39 m 186 528 q 390 592 319 535 q 461 753 461 650 q 445 838 461 804 q 403 892 429 872 q 341 919 376 911 q 267 928 306 928 l 186 928 l 186 528 z "},"B":{"ha":665,"x_min":32,"x_max":640,"o":"m 392 526 q 572 442 504 507 q 640 278 640 378 q 617 145 640 199 q 548 60 593 92 q 439 14 503 28 q 296 0 375 0 l 54 0 q 38 6 43 0 q 32 20 32 13 q 38 34 32 28 q 54 40 43 40 q 71 53 65 40 q 78 85 76 67 q 81 125 81 104 q 81 161 81 146 l 81 824 q 76 883 81 854 q 54 911 71 911 q 38 917 43 911 q 32 931 32 924 q 38 945 32 939 q 54 951 43 951 l 296 951 q 428 944 371 951 q 524 915 485 936 q 583 856 563 894 q 603 754 603 817 q 547 604 603 658 q 392 526 492 550 m 296 24 q 394 44 354 24 q 460 101 435 65 q 495 182 485 136 q 506 278 506 228 q 483 407 506 361 q 422 475 461 453 q 329 502 382 497 q 215 507 276 507 l 215 24 l 296 24 m 215 929 l 215 529 q 403 594 346 536 q 461 754 461 651 q 450 840 461 806 q 417 893 439 874 q 365 921 396 913 q 296 929 335 929 l 215 929 z "},"":{"ha":833,"x_min":3,"x_max":808,"o":"m 793 210 q 803 201 803 210 l 803 200 q 786 111 803 150 q 742 45 769 72 q 676 4 714 18 q 596 -10 639 -10 q 463 12 515 -10 q 382 78 411 33 q 381 75 381 76 q 302 15 349 42 q 182 -11 256 -11 q 119 -1 151 -11 q 62 31 88 10 q 19 85 36 53 q 3 160 3 117 q 26 246 3 210 q 87 306 49 282 q 174 342 125 331 q 272 353 222 353 q 304 351 289 353 q 331 349 319 350 l 331 446 q 331 510 331 478 q 326 568 331 542 q 307 610 321 594 q 264 626 293 626 q 206 618 235 626 q 160 594 178 610 q 141 556 143 578 q 163 506 139 533 q 185 460 182 482 q 181 419 189 438 q 156 390 174 401 q 118 378 139 379 q 51 399 75 375 q 28 460 28 422 q 40 520 28 488 q 81 581 53 553 q 153 627 108 608 q 264 646 199 646 q 428 581 383 646 q 504 630 461 613 q 596 647 547 647 q 753 601 699 647 q 808 486 808 556 q 789 397 808 432 q 739 342 769 363 q 670 313 708 322 q 594 302 632 304 q 522 301 556 300 q 468 303 489 303 q 473 201 468 250 q 492 114 478 151 q 532 54 507 76 q 597 32 557 32 q 687 49 651 32 q 744 90 722 65 q 774 145 765 115 q 783 200 783 175 l 783 201 q 792 210 783 210 l 793 210 m 232 22 q 276 31 254 22 q 315 51 297 39 q 347 75 333 63 q 369 97 361 88 q 338 194 347 138 q 329 324 329 250 q 272 333 310 333 q 169 286 203 333 q 135 160 135 239 q 160 56 135 89 q 232 22 186 22 m 596 631 q 538 611 561 631 q 501 561 515 592 q 481 494 488 531 q 471 424 474 458 q 468 364 468 390 q 468 328 468 338 q 522 330 485 328 q 596 347 558 332 q 663 393 633 361 q 692 486 692 425 q 664 590 692 549 q 596 631 636 631 z "},"":{"ha":694,"x_min":3,"x_max":639,"o":"m 626 310 q 635 305 631 310 q 639 288 639 300 q 622 196 639 247 q 572 99 606 144 q 484 22 538 53 q 357 -10 431 -10 l 374 -10 l 303 -81 q 407 -115 372 -81 q 442 -199 442 -150 q 399 -292 442 -260 q 300 -325 357 -325 q 231 -301 263 -325 q 200 -243 200 -276 q 212 -201 200 -218 q 247 -183 224 -183 q 267 -190 260 -183 q 278 -206 275 -196 q 278 -226 281 -215 q 265 -246 275 -237 q 247 -272 249 -260 q 253 -292 246 -283 q 274 -305 261 -300 q 300 -310 288 -310 q 353 -281 339 -310 q 367 -199 367 -251 q 333 -131 367 -149 q 254 -137 299 -114 q 239 -133 246 -142 q 246 -108 232 -124 l 346 -10 l 357 -10 q 206 28 272 -10 q 95 131 140 65 q 26 285 50 196 q 3 478 3 374 q 22 674 3 582 q 83 834 40 765 q 192 942 125 903 q 357 982 260 982 q 474 964 421 982 q 563 913 526 946 q 619 832 599 879 q 639 726 639 785 q 599 607 639 640 q 506 589 560 574 q 473 609 489 593 q 451 647 457 625 q 451 694 444 668 q 482 746 457 721 q 524 817 517 779 q 515 888 532 856 q 458 940 499 919 q 357 961 418 961 q 278 939 311 961 q 221 879 244 917 q 183 792 197 842 q 162 688 169 742 q 151 580 154 635 q 149 476 149 525 q 155 309 149 390 q 183 165 161 228 q 247 65 206 103 q 357 26 288 26 q 478 58 429 26 q 557 133 528 90 q 599 220 586 176 q 611 288 611 264 q 626 310 611 310 z "},"":{"ha":857,"x_min":3,"x_max":869,"o":"m 849 646 q 864 640 858 646 q 869 625 869 633 q 864 610 869 617 q 849 604 858 604 l 733 604 l 733 139 q 742 90 733 108 q 763 60 750 71 q 788 44 775 49 q 810 40 801 40 q 828 34 822 40 q 833 20 833 28 q 826 6 832 13 q 810 0 821 0 l 733 0 q 637 39 676 0 q 597 135 597 78 l 597 604 l 511 604 q 497 610 503 604 q 490 625 490 617 q 497 640 490 633 q 511 646 503 646 q 563 661 531 646 q 628 704 596 676 l 628 703 q 649 738 638 713 q 669 793 661 763 q 678 856 676 824 q 667 917 679 889 q 627 962 656 944 q 549 979 599 979 q 450 956 488 979 q 394 897 413 933 q 372 815 375 860 q 378 726 369 771 q 406 643 388 682 q 446 581 424 604 q 488 490 488 543 q 478 435 488 457 q 453 402 468 414 q 422 388 439 390 q 389 392 404 385 q 345 442 353 406 q 375 511 338 478 q 399 552 397 532 q 383 589 400 572 q 333 616 367 606 q 250 626 300 626 q 172 612 203 626 q 126 575 142 597 q 111 525 111 553 q 123 472 111 497 q 159 427 135 447 q 218 399 183 407 q 328 362 278 383 q 415 312 379 340 q 470 249 450 283 q 490 174 490 214 q 467 84 490 119 q 409 27 444 49 q 331 -3 374 6 q 250 -11 289 -11 q 172 -1 215 -11 q 92 28 129 8 q 28 79 54 49 q 3 150 3 110 q 13 199 3 178 q 40 235 24 221 q 78 251 57 249 q 119 244 99 254 q 149 220 140 235 q 157 190 157 206 q 149 158 157 174 q 126 128 140 142 q 110 86 106 107 q 135 49 114 65 q 187 22 156 32 q 250 11 218 11 q 337 41 304 11 q 376 110 369 71 q 360 189 383 150 q 282 246 338 228 q 206 272 250 257 q 121 309 161 286 q 53 365 81 332 q 25 446 25 397 q 47 544 25 506 q 103 606 69 583 q 177 638 138 629 q 250 646 217 646 q 324 639 288 646 q 393 617 361 632 q 348 725 361 660 q 349 851 335 790 q 410 956 364 913 q 547 1000 457 1000 q 617 990 583 1000 q 676 957 650 979 q 717 900 701 935 q 733 818 733 865 l 733 694 q 746 655 733 664 q 782 646 758 646 l 849 646 l 849 646 z "},"":{"ha":1157,"x_min":1,"x_max":118,"o":"m 60 951 q 102 928 86 951 q 118 874 118 906 q 106 816 118 840 q 77 775 93 792 q 45 748 61 758 q 24 733 29 738 q 6 732 14 726 q 2 740 3 735 q 7 747 1 744 q 31 763 13 751 q 62 788 49 774 q 74 819 75 803 q 42 849 72 835 q 11 876 21 858 q 3 910 1 893 q 19 939 6 926 q 60 951 33 951 z "},"":{"ha":126,"x_min":1,"x_max":118,"o":"m 60 951 q 102 928 86 951 q 118 874 118 906 q 106 816 118 840 q 77 775 93 792 q 45 748 61 758 q 24 733 29 738 q 6 732 14 726 q 2 740 3 735 q 7 747 1 744 q 31 763 13 751 q 62 788 49 774 q 74 819 75 803 q 42 849 72 835 q 11 876 21 858 q 3 910 1 893 q 19 939 6 926 q 60 951 33 951 z "},"'":{"ha":282,"x_min":146,"x_max":456,"o":"m 204 951 q 247 928 231 951 q 263 874 263 906 q 250 816 263 840 q 222 775 238 792 q 190 748 206 758 q 168 733 174 738 q 150 732 158 726 q 147 740 147 735 q 151 747 146 744 q 175 763 157 751 q 206 788 193 774 q 218 819 219 803 q 186 849 217 835 q 156 876 165 858 q 148 910 146 893 q 164 939 150 926 q 204 951 178 951 m 425 -635 q 411 -643 418 -637 q 398 -652 404 -647 q 386 -660 392 -657 l 382 -660 l 424 -632 q 442 -626 435 -626 q 451 -633 449 -626 q 444 -647 456 -644 q 439 -646 440 -647 q 436 -642 436 -643 q 442 -636 436 -636 q 446 -639 446 -636 q 447 -642 449 -642 q 450 -636 450 -642 q 443 -629 450 -632 q 425 -635 435 -628 m 368 -647 q 361 -633 357 -644 q 371 -626 364 -626 q 389 -632 381 -626 l 404 -642 l 403 -643 q 393 -637 399 -640 q 389 -635 390 -636 q 369 -629 379 -628 q 363 -636 365 -632 q 367 -642 363 -642 l 367 -639 q 371 -636 368 -636 q 378 -642 378 -636 q 375 -646 378 -643 q 368 -647 374 -647 m 403 -619 q 401 -608 401 -617 q 407 -604 401 -604 q 413 -608 413 -604 q 410 -619 413 -614 q 409 -626 410 -622 q 408 -632 408 -629 l 408 -635 q 407 -636 408 -636 q 406 -635 406 -636 l 406 -632 q 403 -619 406 -628 m 401 -633 q 388 -624 394 -626 q 383 -618 381 -622 q 392 -617 386 -611 q 400 -625 397 -619 q 401 -629 401 -628 q 403 -633 401 -631 q 401 -633 403 -633 m 411 -633 q 414 -625 411 -628 q 421 -617 417 -618 q 426 -615 424 -614 q 431 -618 429 -615 q 425 -624 432 -622 q 411 -633 418 -626 m 432 -660 l 428 -660 q 419 -653 424 -657 q 408 -647 414 -650 l 411 -646 l 432 -660 z "},"`":{"ha":1157,"x_min":0,"x_max":0,"o":""}}}
